<?xml version="1.0" encoding="utf-8"?>
<!-- Generator: Adobe Illustrator 22.1.0, SVG Export Plug-In . SVG Version: 6.00 Build 0)  -->
<svg version="1.1" id="Layer_1" xmlns="http://www.w3.org/2000/svg" xmlns:xlink="http://www.w3.org/1999/xlink" x="0px" y="0px"
	 viewBox="0 0 48 43" style="enable-background:new 0 0 48 43;" xml:space="preserve">
<style type="text/css">
	.st0{fill:#FFFFFF;}
</style>
<path class="st0" d="M40,7.1c-1-1-2.2-1.8-3.4-2.3C35.3,4.3,33.9,4,32.5,4c-1.4,0-2.8,0.3-4.1,0.8C27.2,5.4,26,6.1,25,7.1l-1.5,1.5
	L22,7.1c-2-2-4.7-3-7.5-3c-2.8,0-5.5,1.1-7.5,3.1c-2,2-3.1,4.7-3.1,7.5c0,2.8,1.1,5.5,3,7.5l16.5,16.5L40,22.2c1-1,1.8-2.2,2.3-3.4
	c0.5-1.3,0.8-2.7,0.8-4.1s-0.3-2.8-0.8-4.1C41.8,9.3,41,8.1,40,7.1"/>
</svg>
