<svg width="48" height="43" viewBox="0 0 48 43" fill="none" xmlns="http://www.w3.org/2000/svg">
<path d="M42.528 12.424L40.634 10.53L37.587 13.577L31.514 12.909L39.25 5.173L37.356 3.27899L29.619 11.015L28.951 4.94199L32 1.88998L30.1 0L6.98499 23.114L8.02802 32.601L0 40.633L1.89398 42.527L9.927 34.495L19.413 35.538L42.528 12.424ZM16.846 23.79L16.178 17.717L20.136 13.759L20.804 19.832L16.846 23.79ZM22.698 21.727L28.771 22.395L24.813 26.353L18.74 25.685L22.698 21.727ZM35.157 16.009L31.199 19.967L25.126 19.299L29.084 15.341L35.157 16.009ZM27.189 13.447L23.231 17.405L22.563 11.332L26.521 7.37399L27.189 13.447ZM9.789 24.104L13.747 20.146L14.415 26.219L10.457 30.177L9.789 24.104ZM12.351 32.072L16.309 28.114L22.382 28.782L18.424 32.74L12.351 32.072Z" fill="white"/>
<path d="M38.208 42.5271C43.5293 42.5271 47.843 38.2133 47.843 32.8921C47.843 27.5708 43.5293 23.2571 38.208 23.2571C32.8867 23.2571 28.573 27.5708 28.573 32.8921C28.573 38.2133 32.8867 42.5271 38.208 42.5271Z" fill="white"/>
<path d="M38.208 42.0271C43.2531 42.0271 47.343 37.9372 47.343 32.8921C47.343 27.847 43.2531 23.7571 38.208 23.7571C33.1629 23.7571 29.073 27.847 29.073 32.8921C29.073 37.9372 33.1629 42.0271 38.208 42.0271Z" fill="white" stroke="white"/>
<path d="M43.5239 32.8922L42.5569 31.9252L38.8979 35.5842V27.5762H37.5179V35.5842L33.8589 31.9252L32.8919 32.8922L38.2079 38.2082L43.5239 32.8922Z" fill="#121212"/>
</svg>
