<?xml version="1.0" encoding="utf-8"?>
<!-- Generator: Adobe Illustrator 22.1.0, SVG Export Plug-In . SVG Version: 6.00 Build 0)  -->
<svg version="1.1" id="Layer_1" xmlns="http://www.w3.org/2000/svg" xmlns:xlink="http://www.w3.org/1999/xlink" x="0px" y="0px"
	 viewBox="0 0 48 43" style="enable-background:new 0 0 48 43;" xml:space="preserve">
<style type="text/css">
	.st0{fill:#FFFFFF;}
</style>
<path class="st0" d="M34.5,0c-2.1,2-4.6,3.6-7.3,4.8C-0.9,15,10.9,34.8,11.3,34.9c1-1.6,2.2-3.1,3.7-4.3
	C28.5,20.6,31.3,9.2,31.3,9.2s-3,13.8-15.1,22.3c-2.7,1.9-4.5,6.6-5.2,11.2c0,0,1.9-0.8,2.7-1c0.3-2.1,1-4,2.1-5.8
	c16.8,2,22.3-11.6,23-16.3C39.8,12.8,38.2,5.8,34.5,0z"/>
</svg>
