<svg width="234" height="69" viewBox="0 0 234 69" fill="none" xmlns="http://www.w3.org/2000/svg">
<path d="M15.5332 22.455L15.5319 22.4545L12.7706 21.368L12.7706 21.368L12.768 21.367C11.8213 21.0064 10.8303 20.601 9.84005 20.1508C8.85616 19.7036 7.93318 19.1739 7.19184 18.4762C6.44147 17.77 5.78348 16.9354 5.30123 15.8832C4.82167 14.8369 4.5544 13.5162 4.5544 11.9133C4.5544 10.4104 4.8633 9.141 5.42771 8.09745C6.04479 7.04057 6.79049 6.20888 7.70903 5.55278C8.6356 4.89094 9.64688 4.40786 10.7887 4.14436L10.7887 4.14437L10.7908 4.14386C11.9032 3.87689 13.0606 3.74335 14.1729 3.74335C16.2139 3.74335 18.0684 4.2309 19.6994 5.24479L19.6994 5.2449L19.7062 5.24883C21.3876 6.22232 22.621 7.50138 23.4581 9.0875L23.5814 9.32106L23.8079 9.18519L24.7132 8.64197L24.9197 8.51809L24.8036 8.30711C23.786 6.45676 22.351 4.97613 20.5033 3.86746C18.6509 2.75603 16.5688 2.20218 14.2634 2.20218C12.9274 2.20218 11.5922 2.3865 10.2586 2.7544C8.91788 3.12425 7.75803 3.68048 6.69083 4.46928C5.61579 5.26387 4.77809 6.2898 4.12955 7.49424C3.47232 8.7148 3.14903 10.1607 3.14903 11.8227C3.14903 13.6543 3.42317 15.2321 3.98613 16.4527C4.54191 17.7026 5.28517 18.7269 6.17211 19.5212C7.05329 20.3554 8.07172 21.0032 9.1348 21.466C10.1842 21.9676 11.2317 22.3774 12.2295 22.7403L14.9401 23.7793C14.9407 23.7795 14.9413 23.7798 14.9419 23.78C16.0684 24.2307 17.1956 24.7266 18.3274 25.2246C19.4335 25.7113 20.4533 26.3758 21.3417 27.1305C22.2191 27.9208 22.9247 28.8894 23.5009 30.0418C24.0664 31.1728 24.3346 32.5794 24.3346 34.3211C24.3346 36.0118 24.023 37.4137 23.3721 38.5419C22.7081 39.693 21.8714 40.6591 20.8656 41.3588L20.8656 41.3587L20.8598 41.3629C19.8467 42.1118 18.7005 42.6412 17.4188 42.9506C16.1214 43.2638 14.8285 43.4416 13.5844 43.4416C12.0637 43.4416 10.7351 43.2625 9.59204 42.8668L9.58931 42.8659C8.39107 42.4665 7.37218 41.9348 6.44151 41.27C5.50908 40.604 4.70946 39.849 3.99768 39.0037L3.99775 39.0037L3.9933 38.9987C3.28509 38.2019 2.70685 37.3134 2.21477 36.4187L2.09162 36.1948L1.87046 36.3228L1.01036 36.8208L0.796488 36.9446L0.917832 37.1599C2.33985 39.6828 4.13325 41.5705 6.25342 42.9072C8.38063 44.2482 10.8273 44.8922 13.5391 44.8922C15.0538 44.8922 16.5253 44.7085 17.9978 44.2944C19.47 43.8803 20.7664 43.28 21.9266 42.3988C23.0923 41.5588 24.0215 40.4415 24.7161 39.0985C25.4157 37.746 25.7852 36.1666 25.7852 34.3663C25.7852 32.4379 25.4639 30.8142 24.8097 29.4592C24.1649 28.1234 23.3764 27.0068 22.3488 26.1194C21.3374 25.2459 20.2315 24.5081 19.0308 23.954C17.8491 23.4086 16.6681 22.9089 15.5332 22.455Z" fill="white" stroke="white" stroke-width="0.5"/>
<path d="M37.2148 44.6209H37.3825L37.4461 44.4657L41.5925 34.345H64.4782L68.5347 44.4639L68.5977 44.6209H68.7668H69.8079H70.1768L70.0401 44.2782L53.2456 2.17873L53.0134 1.59665L52.7812 2.17873L35.9867 44.2782L35.85 44.6209H36.2189H37.2148ZM63.7823 32.8943H42.155L53.0125 5.53186L63.7823 32.8943Z" fill="white" stroke="white" stroke-width="0.5"/>
<path d="M100.297 43.4197V43.1697H100.047H82.3708V2.76874V2.51874H82.1208H81.1702H80.9202V2.76874V44.3703V44.6203H81.1702H100.047H100.297V44.3703V43.4197Z" fill="white" stroke="white" stroke-width="0.5"/>
<path d="M140.342 2.85912L140.474 2.51874H140.109H139.068H138.897L138.835 2.67829L123.769 41.5019L108.926 2.67946L108.865 2.51874H108.693H107.697H107.334L107.463 2.85781L123.534 45.0026L123.765 45.6101L124 45.0039L140.342 2.85912Z" fill="white" stroke="white" stroke-width="0.5"/>
<path d="M150.929 44.6209H151.096L151.16 44.4665L155.351 34.345H178.192L182.249 44.4639L182.312 44.6209H182.481H183.522H183.891L183.754 44.2782L166.959 2.17873L166.727 1.59665L166.495 2.17873L149.701 44.2782L149.564 44.6209H149.933H150.929ZM177.541 32.8943H155.914L166.727 5.53185L177.541 32.8943Z" fill="white" stroke="white" stroke-width="0.5"/>
<path d="M198.439 2.76874V2.51874H198.189H197.193H196.943V2.76874V39.7077C196.943 41.4496 196.674 42.8168 196.239 43.8179C195.795 44.8387 195.271 45.6169 194.676 46.127L194.676 46.1269L194.669 46.1331C194.109 46.6498 193.465 46.9925 192.869 47.1629C192.247 47.3406 191.728 47.4249 191.353 47.4249H191.065L191.106 47.7102L191.241 48.6609L191.274 48.8886L191.504 48.8751C192.301 48.8282 193.142 48.6408 193.979 48.3153C194.831 47.9837 195.589 47.4621 196.249 46.7078C196.909 45.9541 197.42 45.019 197.835 43.8665C198.256 42.6984 198.439 41.3091 198.439 39.7077V2.76874Z" fill="white" stroke="white" stroke-width="0.5"/>
<path d="M232.91 44.6203H233.16V44.3703V43.4197V43.3744V43.1244H232.91H212.246V22.9368H228.473H228.723V22.6868V21.7362V21.4862H228.473H212.246V3.96937H232.547H232.797V3.71937V2.76874V2.51874H232.547H211.045H210.795V2.76874V44.3703V44.6203H211.045H232.91Z" fill="white" stroke="white" stroke-width="0.5"/>
<mask id="path-8-outside-1" maskUnits="userSpaceOnUse" x="0" y="0" width="234" height="50" fill="black">
<rect fill="white" width="234" height="50"/>
<path d="M232.819 43.511H211.905V22.6423H228.383V21.8728H211.905V3.62966H232.457V2.8601H211.135V44.2806H232.819V43.511ZM212.086 43.33H233V44.5069H210.954V2.67902H232.683V3.856H212.131V21.6917H228.609V22.8234H212.131V43.33H212.086ZM198.053 39.7085V2.8601H197.238V39.6632C197.238 40.5686 197.193 41.3834 197.057 42.0624C196.921 42.7867 196.74 43.3752 196.514 43.9184C196.287 44.4617 196.016 44.9143 195.744 45.3218C195.473 45.7292 195.156 46.0913 194.839 46.3629C194.522 46.6345 194.205 46.8609 193.888 47.042C193.571 47.223 193.209 47.3588 192.892 47.4494C192.575 47.5399 192.259 47.5852 191.987 47.6304C191.761 47.6757 191.58 47.6757 191.398 47.6757L191.534 48.4453C191.896 48.4453 192.259 48.3547 192.621 48.3095C193.028 48.2189 193.436 48.0831 193.798 47.9021C194.567 47.5852 195.292 47.042 195.925 46.3629C196.242 46.0008 196.514 45.6386 196.785 45.186C197.057 44.7333 197.238 44.2353 197.464 43.6921C197.645 43.1489 197.781 42.5151 197.872 41.8361C198.008 41.2023 198.053 40.4781 198.053 39.7085ZM198.279 2.76956V39.7085C198.279 40.5233 198.234 41.2476 198.143 41.9266C198.053 42.6057 197.917 43.2394 197.691 43.7826C197.51 44.3711 197.283 44.8691 197.012 45.3218C196.74 45.7744 196.468 46.1819 196.152 46.544C195.518 47.2683 194.748 47.8115 193.933 48.1284C193.526 48.3095 193.119 48.4453 192.711 48.5358C192.304 48.6263 191.896 48.6716 191.489 48.7169H191.398L191.217 47.5399H191.353C191.534 47.5399 191.761 47.5399 192.032 47.4946C192.304 47.4494 192.575 47.4041 192.892 47.3136C193.209 47.223 193.526 47.0872 193.843 46.9062C194.16 46.7251 194.477 46.4987 194.748 46.2271C195.065 45.9555 195.337 45.6386 195.608 45.2312C195.88 44.8238 196.106 44.3711 196.378 43.8732C196.604 43.3752 196.785 42.7415 196.921 42.0624C197.057 41.3834 197.102 40.5686 197.102 39.7085V2.67902H198.324V2.76956H198.279ZM155.455 33.0993L166.727 4.58029C170.484 14.1319 174.287 23.7288 178.044 33.2804H155.365L155.455 33.0993ZM166.727 5.12351L155.682 33.0541H177.727L166.727 5.12351ZM150.068 44.2806H150.838L155.003 34.0047H178.316L182.435 44.2806H183.295L166.727 2.54322L150.068 44.2806ZM150.929 44.5069H149.752C155.41 30.338 161.069 16.169 166.727 2C172.386 16.169 177.999 30.338 183.658 44.5069H182.39L178.271 34.231H155.229L151.064 44.5069H150.929ZM139.928 2.8601H139.159L123.768 42.4699L108.648 2.8601H107.878L123.813 44.6427L139.928 2.8601ZM139.068 2.67902H140.245C134.723 16.848 129.245 31.0622 123.768 45.2312C118.381 31.0622 112.948 16.8933 107.562 2.67902H108.784L123.768 41.9266L139.023 2.67902H139.068ZM99.9565 43.511H82.0302V2.8601H81.2607V44.2806H99.9565V43.511ZM82.2566 43.33H100.183V44.5069H81.0796V2.67902H82.2566V43.33ZM41.6962 33.0993L52.968 4.53502C56.7253 14.0866 60.5278 23.6835 64.2851 33.2351H41.6509L41.6962 33.0993ZM53.0133 5.12351L41.9678 33.0541H64.0135L53.0133 5.12351ZM36.3545 44.2806H37.1241L41.334 34.0047H64.6472L68.7666 44.2806H69.6267L53.0133 2.54322L36.3545 44.2806ZM37.2146 44.5069H36.0377C41.6962 30.338 47.3547 16.169 53.0133 2C58.6718 16.169 64.2851 30.338 69.9436 44.5069H68.6761L64.5567 34.231H41.4699L37.3052 44.5069H37.2146ZM17.1155 23.4572C16.527 23.2308 15.9385 22.9592 15.3953 22.7781L12.6792 21.737C12.1813 21.5559 11.6833 21.3748 11.2306 21.1485C10.7327 20.9221 10.2347 20.7411 9.73678 20.5147C9.23883 20.2884 8.74088 20.0168 8.2882 19.7452C7.83551 19.4736 7.38283 19.1114 6.97541 18.7945C6.16059 18.0702 5.48156 17.1649 4.98361 16.0784C4.712 15.5352 4.53093 14.9015 4.39512 14.2224C4.25932 13.5434 4.21405 12.7739 4.21405 11.959C4.21405 11.1895 4.30459 10.4652 4.44039 9.78615C4.5762 9.10712 4.80254 8.51863 5.11941 7.97542C5.75317 6.88898 6.52273 5.98361 7.47337 5.30459C7.97132 4.98771 8.46927 4.67083 9.01249 4.44449C9.55571 4.21815 10.0989 3.99181 10.6874 3.856C11.2759 3.7202 11.8644 3.58439 12.4529 3.53912C13.0414 3.44859 13.6299 3.44859 14.1731 3.44859C15.2142 3.44859 16.2101 3.58439 17.1608 3.856C18.1114 4.12761 19.0168 4.48976 19.8769 5.03298C20.737 5.53093 21.4613 6.11942 22.095 6.79844C22.7288 7.4322 23.2267 8.15649 23.6794 8.92605L24.3584 8.51863C23.9058 7.65854 23.3173 6.88898 22.6382 6.16468C21.9592 5.44039 21.1444 4.80663 20.239 4.30868C19.3337 3.76546 18.383 3.35805 17.3419 3.13171C16.346 2.8601 15.2595 2.72429 14.1278 2.72429C13.4488 2.72429 12.815 2.76956 12.136 2.8601C11.5022 2.95063 10.8232 3.08644 10.1895 3.26751C9.55571 3.44859 8.92195 3.67493 8.37873 3.94654C7.79024 4.21815 7.24702 4.53502 6.74907 4.94244C5.75317 5.66673 4.93834 6.66263 4.30459 7.83961C3.98771 8.4281 3.76137 9.06185 3.62556 9.74088C3.48976 10.4199 3.39922 11.1895 3.39922 11.959C3.39922 13.7698 3.67083 15.2636 4.21405 16.4406C4.48566 17.0291 4.80254 17.5723 5.16468 18.0702C5.52683 18.5682 5.88898 19.0209 6.34166 19.383C6.79434 19.7904 7.24702 20.1073 7.69971 20.4242C8.19766 20.7411 8.69561 21.0127 9.19356 21.239C9.73678 21.4654 10.2347 21.6917 10.778 21.9181C11.2759 22.1444 11.8191 22.3255 12.3171 22.5065L15.0332 23.5477C15.5764 23.774 16.1649 24.0004 16.7081 24.2267C17.2513 24.4531 17.8398 24.7247 18.4283 24.9963C19.56 25.5395 20.6012 26.1733 21.5065 26.9881C21.9592 27.3955 22.3666 27.8482 22.774 28.3461C23.1362 28.8441 23.4983 29.3873 23.77 30.0211C24.3584 31.2433 24.63 32.6919 24.63 34.4574C24.63 35.3175 24.5395 36.1323 24.3584 36.8566C24.1774 37.5809 23.951 38.2599 23.5889 38.8484C23.272 39.4369 22.8646 39.9801 22.4119 40.4781C21.9592 40.976 21.5065 41.3834 20.9633 41.7908C20.4201 42.153 19.8769 42.4699 19.2431 42.7415C18.6546 43.0131 18.0209 43.2394 17.3419 43.4205C16.6628 43.6016 16.0291 43.7374 15.3953 43.7826C14.7616 43.8732 14.0825 43.9184 13.4488 43.9184C12.6792 43.9184 11.9549 43.8732 11.2759 43.7826C10.5969 43.6921 9.96312 43.511 9.32937 43.33C8.74088 43.1489 8.15239 42.8773 7.60917 42.6057C7.06595 42.3341 6.568 42.0172 6.07005 41.7003C5.30049 40.9307 4.48566 40.1612 3.76137 39.3011C3.39922 38.8484 3.08234 38.441 2.76546 37.9883C2.49385 37.5809 2.22224 37.1735 1.9959 36.7208L1.31688 37.1282C1.9959 38.3504 2.76546 39.3916 3.62556 40.297C4.48566 41.2476 5.43629 42.0172 6.47746 42.6509C7.51863 43.2847 8.60507 43.7826 9.78205 44.0995C10.959 44.4164 12.2265 44.5975 13.5393 44.5975C14.2636 44.5975 14.9879 44.5522 15.7122 44.4617C16.4365 44.3711 17.1608 44.1901 17.8851 44.009C18.6094 43.8279 19.2884 43.5563 19.9221 43.2394C20.5559 42.9225 21.1444 42.5604 21.7329 42.153C22.2761 41.7456 22.774 41.2476 23.2267 40.7497C23.6794 40.2064 24.0868 39.618 24.4037 38.9842C24.7206 38.3504 24.9922 37.6261 25.1733 36.8566C25.3543 36.087 25.4449 35.2722 25.4449 34.3668C25.4449 33.4162 25.3543 32.5561 25.2185 31.7413C25.0827 30.9264 24.8111 30.2474 24.4942 29.6137C24.1774 28.9799 23.8152 28.3914 23.4078 27.8482C23.0004 27.305 22.5477 26.807 22.095 26.3996C21.5971 25.9469 21.0991 25.5848 20.5559 25.2226C20.0127 24.8605 19.4695 24.5436 18.881 24.272C18.2925 23.9551 17.704 23.7288 17.1155 23.4572ZM15.4859 22.5971C16.0743 22.8234 16.6176 23.0498 17.206 23.2761C17.7945 23.5024 18.383 23.7741 18.9715 24.0457C19.56 24.3173 20.1485 24.6341 20.6917 24.9963C21.2349 25.3584 21.7781 25.7659 22.2308 26.1733C22.7288 26.626 23.1815 27.1239 23.5889 27.6671C23.9963 28.2103 24.3584 28.7988 24.6753 29.4779C24.9922 30.1116 25.2185 30.8812 25.3996 31.696C25.5807 32.5108 25.6259 33.3709 25.6259 34.3668C25.6259 35.2722 25.5354 36.087 25.3543 36.9019C25.1733 37.6714 24.9017 38.3957 24.5848 39.0747C24.2226 39.7538 23.8152 40.3422 23.3625 40.8855C22.9099 41.4287 22.4119 41.9266 21.8234 42.3341C21.2349 42.7415 20.6464 43.1036 20.0127 43.4205C19.3789 43.7374 18.6546 44.009 17.9303 44.1901C17.206 44.3711 16.4818 44.5522 15.7575 44.6427C15.0332 44.7333 14.2636 44.7785 13.5393 44.7785C12.1813 44.7785 10.9138 44.5975 9.69151 44.2806C8.46927 43.9637 7.38283 43.4658 6.29639 42.832C5.25522 42.1982 4.30459 41.3834 3.39922 40.4328C2.53912 39.4822 1.72429 38.3957 1 37.1282L1.04527 37.0377L2.08644 36.4492L2.13171 36.5397C2.40332 36.9924 2.67493 37.4451 2.94654 37.8525C3.26341 38.3052 3.58029 38.7126 3.94244 39.1653C4.62146 40.0254 5.43629 40.7949 6.38693 41.4287C6.83961 41.7456 7.33756 42.0624 7.88078 42.3341C8.424 42.6057 8.96722 42.832 9.55571 43.0131C10.1442 43.1941 10.778 43.3752 11.457 43.4658C12.136 43.5563 12.8603 43.6016 13.5846 43.6016C14.2183 43.6016 14.8521 43.5563 15.4859 43.4658C16.1196 43.3752 16.7534 43.2394 17.4324 43.1036C18.0661 42.9225 18.6999 42.7415 19.2884 42.4699C19.8769 42.1982 20.4201 41.8814 20.9633 41.5192C21.5065 41.1571 21.9592 40.7497 22.3666 40.2517C22.774 39.7538 23.1815 39.2558 23.4983 38.6673C23.8152 38.0788 24.0868 37.4451 24.2226 36.7208C24.4037 35.9965 24.4942 35.2269 24.4942 34.3668C24.4942 32.6466 24.2226 31.1981 23.6341 30.0211C23.3625 29.4326 23.0457 28.8894 22.6835 28.3914C22.3214 27.8935 21.9139 27.4408 21.4613 27.0786C20.5559 26.3091 19.56 25.6301 18.4283 25.1321C17.8851 24.8605 17.2966 24.6341 16.7534 24.3625C16.2101 24.1362 15.6217 23.9099 15.0784 23.6835L12.3623 22.6423C11.8644 22.4613 11.3212 22.2802 10.8232 22.0539C10.3253 21.8275 9.78205 21.6012 9.23883 21.3748C8.69561 21.1485 8.19766 20.8769 7.69971 20.56C7.20176 20.2431 6.74907 19.881 6.29639 19.4736C5.84371 19.0661 5.43629 18.6135 5.07415 18.1155C4.712 17.6176 4.39512 17.0743 4.12351 16.4406C3.58029 15.2636 3.30868 13.7245 3.30868 11.9138C3.30868 11.0989 3.39922 10.3294 3.53502 9.65034C3.67083 8.92605 3.94244 8.29229 4.25932 7.65854C4.89307 6.43629 5.7079 5.48566 6.74907 4.7161C7.24702 4.35395 7.83551 3.99181 8.424 3.7202C9.01249 3.44859 9.64624 3.22224 10.28 2.9959C10.9138 2.81483 11.5928 2.67902 12.2718 2.58849C12.9508 2.49795 13.5846 2.45268 14.2636 2.45268C15.3953 2.45268 16.4818 2.58849 17.5229 2.8601C18.5641 3.13171 19.5147 3.53912 20.4654 4.08234C21.3707 4.62556 22.1856 5.25932 22.9099 5.98361C23.6341 6.7079 24.2226 7.52273 24.7206 8.4281L24.7659 8.51863L23.6794 9.10712L23.6341 9.01659C23.1815 8.20176 22.6835 7.47746 22.0498 6.84371C21.416 6.20995 20.6917 5.62146 19.8316 5.12351C19.0168 4.62556 18.1114 4.21815 17.206 3.99181C16.2554 3.7202 15.3048 3.62966 14.2636 3.62966C13.6751 3.62966 13.1319 3.67493 12.5434 3.7202C11.9549 3.81073 11.4117 3.90127 10.8232 4.03707C10.2347 4.17288 9.69151 4.35395 9.19356 4.62556C8.65034 4.8519 8.15239 5.16878 7.69971 5.48566C6.74907 6.16468 5.97951 7.02478 5.39102 8.06595C5.07415 8.60917 4.84781 9.19766 4.712 9.83142C4.5762 10.4652 4.48566 11.1895 4.48566 11.959C4.48566 12.7739 4.53093 13.5434 4.66673 14.1772C4.80254 14.8562 4.98361 15.4447 5.20995 15.9879C5.7079 17.0291 6.34166 17.9344 7.15649 18.6135C7.5639 18.9756 7.97132 19.2925 8.424 19.5641C8.87668 19.8357 9.32937 20.1073 9.82732 20.3337C10.3253 20.56 10.8232 20.7863 11.3212 20.9674C11.8191 21.1938 12.3171 21.3748 12.7698 21.5559L15.4859 22.5971Z"/>
</mask>
<path d="M232.819 43.511H211.905V22.6423H228.383V21.8728H211.905V3.62966H232.457V2.8601H211.135V44.2806H232.819V43.511ZM212.086 43.33H233V44.5069H210.954V2.67902H232.683V3.856H212.131V21.6917H228.609V22.8234H212.131V43.33H212.086ZM198.053 39.7085V2.8601H197.238V39.6632C197.238 40.5686 197.193 41.3834 197.057 42.0624C196.921 42.7867 196.74 43.3752 196.514 43.9184C196.287 44.4617 196.016 44.9143 195.744 45.3218C195.473 45.7292 195.156 46.0913 194.839 46.3629C194.522 46.6345 194.205 46.8609 193.888 47.042C193.571 47.223 193.209 47.3588 192.892 47.4494C192.575 47.5399 192.259 47.5852 191.987 47.6304C191.761 47.6757 191.58 47.6757 191.398 47.6757L191.534 48.4453C191.896 48.4453 192.259 48.3547 192.621 48.3095C193.028 48.2189 193.436 48.0831 193.798 47.9021C194.567 47.5852 195.292 47.042 195.925 46.3629C196.242 46.0008 196.514 45.6386 196.785 45.186C197.057 44.7333 197.238 44.2353 197.464 43.6921C197.645 43.1489 197.781 42.5151 197.872 41.8361C198.008 41.2023 198.053 40.4781 198.053 39.7085ZM198.279 2.76956V39.7085C198.279 40.5233 198.234 41.2476 198.143 41.9266C198.053 42.6057 197.917 43.2394 197.691 43.7826C197.51 44.3711 197.283 44.8691 197.012 45.3218C196.74 45.7744 196.468 46.1819 196.152 46.544C195.518 47.2683 194.748 47.8115 193.933 48.1284C193.526 48.3095 193.119 48.4453 192.711 48.5358C192.304 48.6263 191.896 48.6716 191.489 48.7169H191.398L191.217 47.5399H191.353C191.534 47.5399 191.761 47.5399 192.032 47.4946C192.304 47.4494 192.575 47.4041 192.892 47.3136C193.209 47.223 193.526 47.0872 193.843 46.9062C194.16 46.7251 194.477 46.4987 194.748 46.2271C195.065 45.9555 195.337 45.6386 195.608 45.2312C195.88 44.8238 196.106 44.3711 196.378 43.8732C196.604 43.3752 196.785 42.7415 196.921 42.0624C197.057 41.3834 197.102 40.5686 197.102 39.7085V2.67902H198.324V2.76956H198.279ZM155.455 33.0993L166.727 4.58029C170.484 14.1319 174.287 23.7288 178.044 33.2804H155.365L155.455 33.0993ZM166.727 5.12351L155.682 33.0541H177.727L166.727 5.12351ZM150.068 44.2806H150.838L155.003 34.0047H178.316L182.435 44.2806H183.295L166.727 2.54322L150.068 44.2806ZM150.929 44.5069H149.752C155.41 30.338 161.069 16.169 166.727 2C172.386 16.169 177.999 30.338 183.658 44.5069H182.39L178.271 34.231H155.229L151.064 44.5069H150.929ZM139.928 2.8601H139.159L123.768 42.4699L108.648 2.8601H107.878L123.813 44.6427L139.928 2.8601ZM139.068 2.67902H140.245C134.723 16.848 129.245 31.0622 123.768 45.2312C118.381 31.0622 112.948 16.8933 107.562 2.67902H108.784L123.768 41.9266L139.023 2.67902H139.068ZM99.9565 43.511H82.0302V2.8601H81.2607V44.2806H99.9565V43.511ZM82.2566 43.33H100.183V44.5069H81.0796V2.67902H82.2566V43.33ZM41.6962 33.0993L52.968 4.53502C56.7253 14.0866 60.5278 23.6835 64.2851 33.2351H41.6509L41.6962 33.0993ZM53.0133 5.12351L41.9678 33.0541H64.0135L53.0133 5.12351ZM36.3545 44.2806H37.1241L41.334 34.0047H64.6472L68.7666 44.2806H69.6267L53.0133 2.54322L36.3545 44.2806ZM37.2146 44.5069H36.0377C41.6962 30.338 47.3547 16.169 53.0133 2C58.6718 16.169 64.2851 30.338 69.9436 44.5069H68.6761L64.5567 34.231H41.4699L37.3052 44.5069H37.2146ZM17.1155 23.4572C16.527 23.2308 15.9385 22.9592 15.3953 22.7781L12.6792 21.737C12.1813 21.5559 11.6833 21.3748 11.2306 21.1485C10.7327 20.9221 10.2347 20.7411 9.73678 20.5147C9.23883 20.2884 8.74088 20.0168 8.2882 19.7452C7.83551 19.4736 7.38283 19.1114 6.97541 18.7945C6.16059 18.0702 5.48156 17.1649 4.98361 16.0784C4.712 15.5352 4.53093 14.9015 4.39512 14.2224C4.25932 13.5434 4.21405 12.7739 4.21405 11.959C4.21405 11.1895 4.30459 10.4652 4.44039 9.78615C4.5762 9.10712 4.80254 8.51863 5.11941 7.97542C5.75317 6.88898 6.52273 5.98361 7.47337 5.30459C7.97132 4.98771 8.46927 4.67083 9.01249 4.44449C9.55571 4.21815 10.0989 3.99181 10.6874 3.856C11.2759 3.7202 11.8644 3.58439 12.4529 3.53912C13.0414 3.44859 13.6299 3.44859 14.1731 3.44859C15.2142 3.44859 16.2101 3.58439 17.1608 3.856C18.1114 4.12761 19.0168 4.48976 19.8769 5.03298C20.737 5.53093 21.4613 6.11942 22.095 6.79844C22.7288 7.4322 23.2267 8.15649 23.6794 8.92605L24.3584 8.51863C23.9058 7.65854 23.3173 6.88898 22.6382 6.16468C21.9592 5.44039 21.1444 4.80663 20.239 4.30868C19.3337 3.76546 18.383 3.35805 17.3419 3.13171C16.346 2.8601 15.2595 2.72429 14.1278 2.72429C13.4488 2.72429 12.815 2.76956 12.136 2.8601C11.5022 2.95063 10.8232 3.08644 10.1895 3.26751C9.55571 3.44859 8.92195 3.67493 8.37873 3.94654C7.79024 4.21815 7.24702 4.53502 6.74907 4.94244C5.75317 5.66673 4.93834 6.66263 4.30459 7.83961C3.98771 8.4281 3.76137 9.06185 3.62556 9.74088C3.48976 10.4199 3.39922 11.1895 3.39922 11.959C3.39922 13.7698 3.67083 15.2636 4.21405 16.4406C4.48566 17.0291 4.80254 17.5723 5.16468 18.0702C5.52683 18.5682 5.88898 19.0209 6.34166 19.383C6.79434 19.7904 7.24702 20.1073 7.69971 20.4242C8.19766 20.7411 8.69561 21.0127 9.19356 21.239C9.73678 21.4654 10.2347 21.6917 10.778 21.9181C11.2759 22.1444 11.8191 22.3255 12.3171 22.5065L15.0332 23.5477C15.5764 23.774 16.1649 24.0004 16.7081 24.2267C17.2513 24.4531 17.8398 24.7247 18.4283 24.9963C19.56 25.5395 20.6012 26.1733 21.5065 26.9881C21.9592 27.3955 22.3666 27.8482 22.774 28.3461C23.1362 28.8441 23.4983 29.3873 23.77 30.0211C24.3584 31.2433 24.63 32.6919 24.63 34.4574C24.63 35.3175 24.5395 36.1323 24.3584 36.8566C24.1774 37.5809 23.951 38.2599 23.5889 38.8484C23.272 39.4369 22.8646 39.9801 22.4119 40.4781C21.9592 40.976 21.5065 41.3834 20.9633 41.7908C20.4201 42.153 19.8769 42.4699 19.2431 42.7415C18.6546 43.0131 18.0209 43.2394 17.3419 43.4205C16.6628 43.6016 16.0291 43.7374 15.3953 43.7826C14.7616 43.8732 14.0825 43.9184 13.4488 43.9184C12.6792 43.9184 11.9549 43.8732 11.2759 43.7826C10.5969 43.6921 9.96312 43.511 9.32937 43.33C8.74088 43.1489 8.15239 42.8773 7.60917 42.6057C7.06595 42.3341 6.568 42.0172 6.07005 41.7003C5.30049 40.9307 4.48566 40.1612 3.76137 39.3011C3.39922 38.8484 3.08234 38.441 2.76546 37.9883C2.49385 37.5809 2.22224 37.1735 1.9959 36.7208L1.31688 37.1282C1.9959 38.3504 2.76546 39.3916 3.62556 40.297C4.48566 41.2476 5.43629 42.0172 6.47746 42.6509C7.51863 43.2847 8.60507 43.7826 9.78205 44.0995C10.959 44.4164 12.2265 44.5975 13.5393 44.5975C14.2636 44.5975 14.9879 44.5522 15.7122 44.4617C16.4365 44.3711 17.1608 44.1901 17.8851 44.009C18.6094 43.8279 19.2884 43.5563 19.9221 43.2394C20.5559 42.9225 21.1444 42.5604 21.7329 42.153C22.2761 41.7456 22.774 41.2476 23.2267 40.7497C23.6794 40.2064 24.0868 39.618 24.4037 38.9842C24.7206 38.3504 24.9922 37.6261 25.1733 36.8566C25.3543 36.087 25.4449 35.2722 25.4449 34.3668C25.4449 33.4162 25.3543 32.5561 25.2185 31.7413C25.0827 30.9264 24.8111 30.2474 24.4942 29.6137C24.1774 28.9799 23.8152 28.3914 23.4078 27.8482C23.0004 27.305 22.5477 26.807 22.095 26.3996C21.5971 25.9469 21.0991 25.5848 20.5559 25.2226C20.0127 24.8605 19.4695 24.5436 18.881 24.272C18.2925 23.9551 17.704 23.7288 17.1155 23.4572ZM15.4859 22.5971C16.0743 22.8234 16.6176 23.0498 17.206 23.2761C17.7945 23.5024 18.383 23.7741 18.9715 24.0457C19.56 24.3173 20.1485 24.6341 20.6917 24.9963C21.2349 25.3584 21.7781 25.7659 22.2308 26.1733C22.7288 26.626 23.1815 27.1239 23.5889 27.6671C23.9963 28.2103 24.3584 28.7988 24.6753 29.4779C24.9922 30.1116 25.2185 30.8812 25.3996 31.696C25.5807 32.5108 25.6259 33.3709 25.6259 34.3668C25.6259 35.2722 25.5354 36.087 25.3543 36.9019C25.1733 37.6714 24.9017 38.3957 24.5848 39.0747C24.2226 39.7538 23.8152 40.3422 23.3625 40.8855C22.9099 41.4287 22.4119 41.9266 21.8234 42.3341C21.2349 42.7415 20.6464 43.1036 20.0127 43.4205C19.3789 43.7374 18.6546 44.009 17.9303 44.1901C17.206 44.3711 16.4818 44.5522 15.7575 44.6427C15.0332 44.7333 14.2636 44.7785 13.5393 44.7785C12.1813 44.7785 10.9138 44.5975 9.69151 44.2806C8.46927 43.9637 7.38283 43.4658 6.29639 42.832C5.25522 42.1982 4.30459 41.3834 3.39922 40.4328C2.53912 39.4822 1.72429 38.3957 1 37.1282L1.04527 37.0377L2.08644 36.4492L2.13171 36.5397C2.40332 36.9924 2.67493 37.4451 2.94654 37.8525C3.26341 38.3052 3.58029 38.7126 3.94244 39.1653C4.62146 40.0254 5.43629 40.7949 6.38693 41.4287C6.83961 41.7456 7.33756 42.0624 7.88078 42.3341C8.424 42.6057 8.96722 42.832 9.55571 43.0131C10.1442 43.1941 10.778 43.3752 11.457 43.4658C12.136 43.5563 12.8603 43.6016 13.5846 43.6016C14.2183 43.6016 14.8521 43.5563 15.4859 43.4658C16.1196 43.3752 16.7534 43.2394 17.4324 43.1036C18.0661 42.9225 18.6999 42.7415 19.2884 42.4699C19.8769 42.1982 20.4201 41.8814 20.9633 41.5192C21.5065 41.1571 21.9592 40.7497 22.3666 40.2517C22.774 39.7538 23.1815 39.2558 23.4983 38.6673C23.8152 38.0788 24.0868 37.4451 24.2226 36.7208C24.4037 35.9965 24.4942 35.2269 24.4942 34.3668C24.4942 32.6466 24.2226 31.1981 23.6341 30.0211C23.3625 29.4326 23.0457 28.8894 22.6835 28.3914C22.3214 27.8935 21.9139 27.4408 21.4613 27.0786C20.5559 26.3091 19.56 25.6301 18.4283 25.1321C17.8851 24.8605 17.2966 24.6341 16.7534 24.3625C16.2101 24.1362 15.6217 23.9099 15.0784 23.6835L12.3623 22.6423C11.8644 22.4613 11.3212 22.2802 10.8232 22.0539C10.3253 21.8275 9.78205 21.6012 9.23883 21.3748C8.69561 21.1485 8.19766 20.8769 7.69971 20.56C7.20176 20.2431 6.74907 19.881 6.29639 19.4736C5.84371 19.0661 5.43629 18.6135 5.07415 18.1155C4.712 17.6176 4.39512 17.0743 4.12351 16.4406C3.58029 15.2636 3.30868 13.7245 3.30868 11.9138C3.30868 11.0989 3.39922 10.3294 3.53502 9.65034C3.67083 8.92605 3.94244 8.29229 4.25932 7.65854C4.89307 6.43629 5.7079 5.48566 6.74907 4.7161C7.24702 4.35395 7.83551 3.99181 8.424 3.7202C9.01249 3.44859 9.64624 3.22224 10.28 2.9959C10.9138 2.81483 11.5928 2.67902 12.2718 2.58849C12.9508 2.49795 13.5846 2.45268 14.2636 2.45268C15.3953 2.45268 16.4818 2.58849 17.5229 2.8601C18.5641 3.13171 19.5147 3.53912 20.4654 4.08234C21.3707 4.62556 22.1856 5.25932 22.9099 5.98361C23.6341 6.7079 24.2226 7.52273 24.7206 8.4281L24.7659 8.51863L23.6794 9.10712L23.6341 9.01659C23.1815 8.20176 22.6835 7.47746 22.0498 6.84371C21.416 6.20995 20.6917 5.62146 19.8316 5.12351C19.0168 4.62556 18.1114 4.21815 17.206 3.99181C16.2554 3.7202 15.3048 3.62966 14.2636 3.62966C13.6751 3.62966 13.1319 3.67493 12.5434 3.7202C11.9549 3.81073 11.4117 3.90127 10.8232 4.03707C10.2347 4.17288 9.69151 4.35395 9.19356 4.62556C8.65034 4.8519 8.15239 5.16878 7.69971 5.48566C6.74907 6.16468 5.97951 7.02478 5.39102 8.06595C5.07415 8.60917 4.84781 9.19766 4.712 9.83142C4.5762 10.4652 4.48566 11.1895 4.48566 11.959C4.48566 12.7739 4.53093 13.5434 4.66673 14.1772C4.80254 14.8562 4.98361 15.4447 5.20995 15.9879C5.7079 17.0291 6.34166 17.9344 7.15649 18.6135C7.5639 18.9756 7.97132 19.2925 8.424 19.5641C8.87668 19.8357 9.32937 20.1073 9.82732 20.3337C10.3253 20.56 10.8232 20.7863 11.3212 20.9674C11.8191 21.1938 12.3171 21.3748 12.7698 21.5559L15.4859 22.5971Z" fill="white"/>
<path d="M232.819 43.511H211.905V22.6423H228.383V21.8728H211.905V3.62966H232.457V2.8601H211.135V44.2806H232.819V43.511ZM212.086 43.33H233V44.5069H210.954V2.67902H232.683V3.856H212.131V21.6917H228.609V22.8234H212.131V43.33H212.086ZM198.053 39.7085V2.8601H197.238V39.6632C197.238 40.5686 197.193 41.3834 197.057 42.0624C196.921 42.7867 196.74 43.3752 196.514 43.9184C196.287 44.4617 196.016 44.9143 195.744 45.3218C195.473 45.7292 195.156 46.0913 194.839 46.3629C194.522 46.6345 194.205 46.8609 193.888 47.042C193.571 47.223 193.209 47.3588 192.892 47.4494C192.575 47.5399 192.259 47.5852 191.987 47.6304C191.761 47.6757 191.58 47.6757 191.398 47.6757L191.534 48.4453C191.896 48.4453 192.259 48.3547 192.621 48.3095C193.028 48.2189 193.436 48.0831 193.798 47.9021C194.567 47.5852 195.292 47.042 195.925 46.3629C196.242 46.0008 196.514 45.6386 196.785 45.186C197.057 44.7333 197.238 44.2353 197.464 43.6921C197.645 43.1489 197.781 42.5151 197.872 41.8361C198.008 41.2023 198.053 40.4781 198.053 39.7085ZM198.279 2.76956V39.7085C198.279 40.5233 198.234 41.2476 198.143 41.9266C198.053 42.6057 197.917 43.2394 197.691 43.7826C197.51 44.3711 197.283 44.8691 197.012 45.3218C196.74 45.7744 196.468 46.1819 196.152 46.544C195.518 47.2683 194.748 47.8115 193.933 48.1284C193.526 48.3095 193.119 48.4453 192.711 48.5358C192.304 48.6263 191.896 48.6716 191.489 48.7169H191.398L191.217 47.5399H191.353C191.534 47.5399 191.761 47.5399 192.032 47.4946C192.304 47.4494 192.575 47.4041 192.892 47.3136C193.209 47.223 193.526 47.0872 193.843 46.9062C194.16 46.7251 194.477 46.4987 194.748 46.2271C195.065 45.9555 195.337 45.6386 195.608 45.2312C195.88 44.8238 196.106 44.3711 196.378 43.8732C196.604 43.3752 196.785 42.7415 196.921 42.0624C197.057 41.3834 197.102 40.5686 197.102 39.7085V2.67902H198.324V2.76956H198.279ZM155.455 33.0993L166.727 4.58029C170.484 14.1319 174.287 23.7288 178.044 33.2804H155.365L155.455 33.0993ZM166.727 5.12351L155.682 33.0541H177.727L166.727 5.12351ZM150.068 44.2806H150.838L155.003 34.0047H178.316L182.435 44.2806H183.295L166.727 2.54322L150.068 44.2806ZM150.929 44.5069H149.752C155.41 30.338 161.069 16.169 166.727 2C172.386 16.169 177.999 30.338 183.658 44.5069H182.39L178.271 34.231H155.229L151.064 44.5069H150.929ZM139.928 2.8601H139.159L123.768 42.4699L108.648 2.8601H107.878L123.813 44.6427L139.928 2.8601ZM139.068 2.67902H140.245C134.723 16.848 129.245 31.0622 123.768 45.2312C118.381 31.0622 112.948 16.8933 107.562 2.67902H108.784L123.768 41.9266L139.023 2.67902H139.068ZM99.9565 43.511H82.0302V2.8601H81.2607V44.2806H99.9565V43.511ZM82.2566 43.33H100.183V44.5069H81.0796V2.67902H82.2566V43.33ZM41.6962 33.0993L52.968 4.53502C56.7253 14.0866 60.5278 23.6835 64.2851 33.2351H41.6509L41.6962 33.0993ZM53.0133 5.12351L41.9678 33.0541H64.0135L53.0133 5.12351ZM36.3545 44.2806H37.1241L41.334 34.0047H64.6472L68.7666 44.2806H69.6267L53.0133 2.54322L36.3545 44.2806ZM37.2146 44.5069H36.0377C41.6962 30.338 47.3547 16.169 53.0133 2C58.6718 16.169 64.2851 30.338 69.9436 44.5069H68.6761L64.5567 34.231H41.4699L37.3052 44.5069H37.2146ZM17.1155 23.4572C16.527 23.2308 15.9385 22.9592 15.3953 22.7781L12.6792 21.737C12.1813 21.5559 11.6833 21.3748 11.2306 21.1485C10.7327 20.9221 10.2347 20.7411 9.73678 20.5147C9.23883 20.2884 8.74088 20.0168 8.2882 19.7452C7.83551 19.4736 7.38283 19.1114 6.97541 18.7945C6.16059 18.0702 5.48156 17.1649 4.98361 16.0784C4.712 15.5352 4.53093 14.9015 4.39512 14.2224C4.25932 13.5434 4.21405 12.7739 4.21405 11.959C4.21405 11.1895 4.30459 10.4652 4.44039 9.78615C4.5762 9.10712 4.80254 8.51863 5.11941 7.97542C5.75317 6.88898 6.52273 5.98361 7.47337 5.30459C7.97132 4.98771 8.46927 4.67083 9.01249 4.44449C9.55571 4.21815 10.0989 3.99181 10.6874 3.856C11.2759 3.7202 11.8644 3.58439 12.4529 3.53912C13.0414 3.44859 13.6299 3.44859 14.1731 3.44859C15.2142 3.44859 16.2101 3.58439 17.1608 3.856C18.1114 4.12761 19.0168 4.48976 19.8769 5.03298C20.737 5.53093 21.4613 6.11942 22.095 6.79844C22.7288 7.4322 23.2267 8.15649 23.6794 8.92605L24.3584 8.51863C23.9058 7.65854 23.3173 6.88898 22.6382 6.16468C21.9592 5.44039 21.1444 4.80663 20.239 4.30868C19.3337 3.76546 18.383 3.35805 17.3419 3.13171C16.346 2.8601 15.2595 2.72429 14.1278 2.72429C13.4488 2.72429 12.815 2.76956 12.136 2.8601C11.5022 2.95063 10.8232 3.08644 10.1895 3.26751C9.55571 3.44859 8.92195 3.67493 8.37873 3.94654C7.79024 4.21815 7.24702 4.53502 6.74907 4.94244C5.75317 5.66673 4.93834 6.66263 4.30459 7.83961C3.98771 8.4281 3.76137 9.06185 3.62556 9.74088C3.48976 10.4199 3.39922 11.1895 3.39922 11.959C3.39922 13.7698 3.67083 15.2636 4.21405 16.4406C4.48566 17.0291 4.80254 17.5723 5.16468 18.0702C5.52683 18.5682 5.88898 19.0209 6.34166 19.383C6.79434 19.7904 7.24702 20.1073 7.69971 20.4242C8.19766 20.7411 8.69561 21.0127 9.19356 21.239C9.73678 21.4654 10.2347 21.6917 10.778 21.9181C11.2759 22.1444 11.8191 22.3255 12.3171 22.5065L15.0332 23.5477C15.5764 23.774 16.1649 24.0004 16.7081 24.2267C17.2513 24.4531 17.8398 24.7247 18.4283 24.9963C19.56 25.5395 20.6012 26.1733 21.5065 26.9881C21.9592 27.3955 22.3666 27.8482 22.774 28.3461C23.1362 28.8441 23.4983 29.3873 23.77 30.0211C24.3584 31.2433 24.63 32.6919 24.63 34.4574C24.63 35.3175 24.5395 36.1323 24.3584 36.8566C24.1774 37.5809 23.951 38.2599 23.5889 38.8484C23.272 39.4369 22.8646 39.9801 22.4119 40.4781C21.9592 40.976 21.5065 41.3834 20.9633 41.7908C20.4201 42.153 19.8769 42.4699 19.2431 42.7415C18.6546 43.0131 18.0209 43.2394 17.3419 43.4205C16.6628 43.6016 16.0291 43.7374 15.3953 43.7826C14.7616 43.8732 14.0825 43.9184 13.4488 43.9184C12.6792 43.9184 11.9549 43.8732 11.2759 43.7826C10.5969 43.6921 9.96312 43.511 9.32937 43.33C8.74088 43.1489 8.15239 42.8773 7.60917 42.6057C7.06595 42.3341 6.568 42.0172 6.07005 41.7003C5.30049 40.9307 4.48566 40.1612 3.76137 39.3011C3.39922 38.8484 3.08234 38.441 2.76546 37.9883C2.49385 37.5809 2.22224 37.1735 1.9959 36.7208L1.31688 37.1282C1.9959 38.3504 2.76546 39.3916 3.62556 40.297C4.48566 41.2476 5.43629 42.0172 6.47746 42.6509C7.51863 43.2847 8.60507 43.7826 9.78205 44.0995C10.959 44.4164 12.2265 44.5975 13.5393 44.5975C14.2636 44.5975 14.9879 44.5522 15.7122 44.4617C16.4365 44.3711 17.1608 44.1901 17.8851 44.009C18.6094 43.8279 19.2884 43.5563 19.9221 43.2394C20.5559 42.9225 21.1444 42.5604 21.7329 42.153C22.2761 41.7456 22.774 41.2476 23.2267 40.7497C23.6794 40.2064 24.0868 39.618 24.4037 38.9842C24.7206 38.3504 24.9922 37.6261 25.1733 36.8566C25.3543 36.087 25.4449 35.2722 25.4449 34.3668C25.4449 33.4162 25.3543 32.5561 25.2185 31.7413C25.0827 30.9264 24.8111 30.2474 24.4942 29.6137C24.1774 28.9799 23.8152 28.3914 23.4078 27.8482C23.0004 27.305 22.5477 26.807 22.095 26.3996C21.5971 25.9469 21.0991 25.5848 20.5559 25.2226C20.0127 24.8605 19.4695 24.5436 18.881 24.272C18.2925 23.9551 17.704 23.7288 17.1155 23.4572ZM15.4859 22.5971C16.0743 22.8234 16.6176 23.0498 17.206 23.2761C17.7945 23.5024 18.383 23.7741 18.9715 24.0457C19.56 24.3173 20.1485 24.6341 20.6917 24.9963C21.2349 25.3584 21.7781 25.7659 22.2308 26.1733C22.7288 26.626 23.1815 27.1239 23.5889 27.6671C23.9963 28.2103 24.3584 28.7988 24.6753 29.4779C24.9922 30.1116 25.2185 30.8812 25.3996 31.696C25.5807 32.5108 25.6259 33.3709 25.6259 34.3668C25.6259 35.2722 25.5354 36.087 25.3543 36.9019C25.1733 37.6714 24.9017 38.3957 24.5848 39.0747C24.2226 39.7538 23.8152 40.3422 23.3625 40.8855C22.9099 41.4287 22.4119 41.9266 21.8234 42.3341C21.2349 42.7415 20.6464 43.1036 20.0127 43.4205C19.3789 43.7374 18.6546 44.009 17.9303 44.1901C17.206 44.3711 16.4818 44.5522 15.7575 44.6427C15.0332 44.7333 14.2636 44.7785 13.5393 44.7785C12.1813 44.7785 10.9138 44.5975 9.69151 44.2806C8.46927 43.9637 7.38283 43.4658 6.29639 42.832C5.25522 42.1982 4.30459 41.3834 3.39922 40.4328C2.53912 39.4822 1.72429 38.3957 1 37.1282L1.04527 37.0377L2.08644 36.4492L2.13171 36.5397C2.40332 36.9924 2.67493 37.4451 2.94654 37.8525C3.26341 38.3052 3.58029 38.7126 3.94244 39.1653C4.62146 40.0254 5.43629 40.7949 6.38693 41.4287C6.83961 41.7456 7.33756 42.0624 7.88078 42.3341C8.424 42.6057 8.96722 42.832 9.55571 43.0131C10.1442 43.1941 10.778 43.3752 11.457 43.4658C12.136 43.5563 12.8603 43.6016 13.5846 43.6016C14.2183 43.6016 14.8521 43.5563 15.4859 43.4658C16.1196 43.3752 16.7534 43.2394 17.4324 43.1036C18.0661 42.9225 18.6999 42.7415 19.2884 42.4699C19.8769 42.1982 20.4201 41.8814 20.9633 41.5192C21.5065 41.1571 21.9592 40.7497 22.3666 40.2517C22.774 39.7538 23.1815 39.2558 23.4983 38.6673C23.8152 38.0788 24.0868 37.4451 24.2226 36.7208C24.4037 35.9965 24.4942 35.2269 24.4942 34.3668C24.4942 32.6466 24.2226 31.1981 23.6341 30.0211C23.3625 29.4326 23.0457 28.8894 22.6835 28.3914C22.3214 27.8935 21.9139 27.4408 21.4613 27.0786C20.5559 26.3091 19.56 25.6301 18.4283 25.1321C17.8851 24.8605 17.2966 24.6341 16.7534 24.3625C16.2101 24.1362 15.6217 23.9099 15.0784 23.6835L12.3623 22.6423C11.8644 22.4613 11.3212 22.2802 10.8232 22.0539C10.3253 21.8275 9.78205 21.6012 9.23883 21.3748C8.69561 21.1485 8.19766 20.8769 7.69971 20.56C7.20176 20.2431 6.74907 19.881 6.29639 19.4736C5.84371 19.0661 5.43629 18.6135 5.07415 18.1155C4.712 17.6176 4.39512 17.0743 4.12351 16.4406C3.58029 15.2636 3.30868 13.7245 3.30868 11.9138C3.30868 11.0989 3.39922 10.3294 3.53502 9.65034C3.67083 8.92605 3.94244 8.29229 4.25932 7.65854C4.89307 6.43629 5.7079 5.48566 6.74907 4.7161C7.24702 4.35395 7.83551 3.99181 8.424 3.7202C9.01249 3.44859 9.64624 3.22224 10.28 2.9959C10.9138 2.81483 11.5928 2.67902 12.2718 2.58849C12.9508 2.49795 13.5846 2.45268 14.2636 2.45268C15.3953 2.45268 16.4818 2.58849 17.5229 2.8601C18.5641 3.13171 19.5147 3.53912 20.4654 4.08234C21.3707 4.62556 22.1856 5.25932 22.9099 5.98361C23.6341 6.7079 24.2226 7.52273 24.7206 8.4281L24.7659 8.51863L23.6794 9.10712L23.6341 9.01659C23.1815 8.20176 22.6835 7.47746 22.0498 6.84371C21.416 6.20995 20.6917 5.62146 19.8316 5.12351C19.0168 4.62556 18.1114 4.21815 17.206 3.99181C16.2554 3.7202 15.3048 3.62966 14.2636 3.62966C13.6751 3.62966 13.1319 3.67493 12.5434 3.7202C11.9549 3.81073 11.4117 3.90127 10.8232 4.03707C10.2347 4.17288 9.69151 4.35395 9.19356 4.62556C8.65034 4.8519 8.15239 5.16878 7.69971 5.48566C6.74907 6.16468 5.97951 7.02478 5.39102 8.06595C5.07415 8.60917 4.84781 9.19766 4.712 9.83142C4.5762 10.4652 4.48566 11.1895 4.48566 11.959C4.48566 12.7739 4.53093 13.5434 4.66673 14.1772C4.80254 14.8562 4.98361 15.4447 5.20995 15.9879C5.7079 17.0291 6.34166 17.9344 7.15649 18.6135C7.5639 18.9756 7.97132 19.2925 8.424 19.5641C8.87668 19.8357 9.32937 20.1073 9.82732 20.3337C10.3253 20.56 10.8232 20.7863 11.3212 20.9674C11.8191 21.1938 12.3171 21.3748 12.7698 21.5559L15.4859 22.5971Z" stroke="white" mask="url(#path-8-outside-1)"/>
<path d="M70.0797 67.0722H65.984V60.6009H70.0797C70.6423 60.6009 71.1562 60.6874 71.6239 60.8574L71.6239 60.8575L71.6303 60.8597C72.1415 61.0301 72.5652 61.2848 72.9028 61.5802L72.9082 61.5849L72.9139 61.5894C73.2819 61.8756 73.5338 62.2484 73.7542 62.6452C73.9549 63.0063 74.0397 63.4145 74.0397 63.8818C74.0397 64.3491 73.9549 64.7573 73.7542 65.1184C73.5476 65.4903 73.256 65.8272 72.915 66.1274C72.5171 66.392 72.0885 66.6467 71.6239 66.8156C71.1562 66.9857 70.6423 67.0722 70.0797 67.0722ZM72.0049 60.0838C72.4079 59.8724 72.7517 59.5874 73.0346 59.2417C73.4754 58.7029 73.7248 58.0594 73.7248 57.3632C73.7248 56.9194 73.6263 56.4734 73.4268 56.0744C73.2273 55.6754 72.9317 55.3332 72.5964 55.0457C72.2599 54.7574 71.8687 54.5115 71.3774 54.3634C70.9466 54.2203 70.4234 54.1255 69.8986 54.1255H65.3265H65.0765V54.3755V67.6391V67.8891H65.3265H70.0797C70.7473 67.8891 71.4084 67.7464 71.9695 67.5594C72.5377 67.37 73.0648 67.0843 73.5003 66.6985C73.979 66.3144 74.3171 65.8797 74.5585 65.3969L74.5587 65.397L74.5625 65.3886C74.7979 64.8706 74.9471 64.3817 74.9471 63.7913C74.9471 63.3023 74.8487 62.8604 74.6539 62.4222C74.4634 61.9937 74.2213 61.6039 73.8779 61.2605C73.5511 60.9337 73.2125 60.6419 72.7265 60.3989C72.4909 60.2811 72.2521 60.1736 72.0049 60.0838ZM65.8934 59.6935V54.8518H69.8534C70.2711 54.8518 70.6509 54.935 71.0418 55.0653C71.41 55.188 71.7419 55.3935 71.9934 55.6015C72.2513 55.8604 72.4591 56.1122 72.624 56.4008C72.7823 56.6778 72.8627 56.9968 72.8627 57.3179C72.8627 57.7216 72.8129 57.9431 72.6643 58.0918L72.6303 58.1258L72.6113 58.1701C72.4959 58.4394 72.2544 58.7262 72.002 58.9366L72.002 58.9366L71.9994 58.9388C71.7069 59.1895 71.4184 59.3544 71.0418 59.4799C70.6509 59.6103 70.2711 59.6935 69.8534 59.6935H65.8934Z" fill="white" stroke="white" stroke-width="0.5"/>
<path d="M83.3884 67.8437H83.541L83.6107 67.708L85.2159 64.5844H94.0983L95.6588 67.7056L95.7279 67.8437H95.8824H96.2898H96.6931L96.5137 67.4826L89.8593 54.0831L89.6354 53.6323L89.4115 54.0831L82.757 67.4826L82.5777 67.8437H82.981H83.3884ZM89.6377 55.575L93.7134 63.7676H85.6443L89.6377 55.575Z" fill="white" stroke="white" stroke-width="0.5"/>
<path d="M105.389 67.8438H105.639V67.5938V61.4719L113.241 67.7861L113.311 67.8438H113.401H113.899H114.589L114.059 67.4018L106.102 60.7632L113.964 54.526L114.526 54.0802H113.809H113.265H113.178L113.109 54.1348L105.639 60.1028V54.3302V54.0802H105.389H105.026H104.776V54.3302V67.5938V67.8438H105.026H105.389Z" fill="white" stroke="white" stroke-width="0.5"/>
<path d="M131.759 67.3222V67.0722H131.509H123.474V60.963H129.743H129.993V60.713V60.3961V60.1461H129.743H123.474V54.9423H131.373H131.623V54.6923V54.3755V54.1255H131.373H122.862H122.612V54.3755V67.6391V67.8891H122.862H131.509H131.759V67.6391V67.3222Z" fill="white" stroke="white" stroke-width="0.5"/>
<path d="M139.838 67.8438H140.088V67.5938V61.642H143.246L147.924 67.7459L147.999 67.8438H148.122H148.575H149.081L148.773 67.4417L144.328 61.642C144.936 61.6411 145.55 61.5476 146.077 61.3565C146.657 61.1626 147.09 60.8722 147.506 60.5482L147.512 60.5438L147.517 60.539C147.903 60.2013 148.238 59.7706 148.477 59.3406C148.729 58.8869 148.825 58.3897 148.825 57.8611C148.825 57.3815 148.73 56.8405 148.479 56.3865C148.24 55.9087 147.947 55.5166 147.506 55.174C147.083 54.8448 146.608 54.5587 146.08 54.3668C145.55 54.1741 144.932 54.0802 144.32 54.0802H139.476H139.226V54.3302V67.5938V67.8438H139.476H139.838ZM140.088 60.8704V54.8518H144.32C144.837 54.8518 145.348 54.9384 145.766 55.1055C146.194 55.2767 146.577 55.4891 146.917 55.7419C147.235 56.0597 147.51 56.342 147.667 56.6951L147.672 56.7053L147.677 56.715C147.881 57.0809 147.963 57.4456 147.963 57.8611C147.963 58.2625 147.843 58.6323 147.667 59.0271C147.502 59.4 147.255 59.7266 146.931 59.9698L146.925 59.9747L146.918 59.98C146.634 60.2239 146.213 60.4375 145.77 60.6152C145.3 60.7856 144.832 60.8704 144.32 60.8704H140.088Z" fill="white" stroke="white" stroke-width="0.5"/>
<path d="M167.839 54.4714L168.107 54.0802H167.633H167.135H167.002L166.928 54.1894L162.291 60.9934L157.654 54.1894L157.579 54.0802H157.447H156.995H156.52L156.788 54.4714L161.86 61.8768V67.5938V67.8438H162.11H162.517H162.767V67.5938V61.8768L167.839 54.4714Z" fill="white" stroke="white" stroke-width="0.5"/>
<mask id="path-15-outside-2" maskUnits="userSpaceOnUse" x="64.0999" y="51.968" width="105" height="17" fill="black">
<rect fill="white" x="64.0999" y="51.968" width="105" height="17"/>
<path d="M167.406 54.466H167.225L162.291 61.6184L157.357 54.466H157.221L162.2 61.7542V67.5032H162.381V61.7542L167.406 54.466ZM167.18 54.2396H167.814L162.608 61.7994V67.6843H162.019V61.7994L156.813 54.2396H157.492L162.291 61.2562L167.089 54.2396H167.18ZM144.274 61.2109H139.702V54.5565H144.274C144.546 54.5565 144.817 54.5565 145.089 54.6018C145.361 54.647 145.587 54.6923 145.858 54.7828C146.085 54.8734 146.311 54.9639 146.537 55.0997C146.764 55.2355 146.945 55.3713 147.126 55.5071C147.307 55.6429 147.488 55.824 147.624 56.0051C147.76 56.1862 147.896 56.3672 147.986 56.5936C148.077 56.7746 148.167 57.001 148.212 57.2273C148.258 57.4537 148.303 57.68 148.303 57.9064C148.303 58.1327 148.258 58.359 148.212 58.5854C148.167 58.8117 148.077 58.9928 147.986 59.2191C147.896 59.4002 147.76 59.6266 147.624 59.7624C147.488 59.9434 147.307 60.0792 147.126 60.2603C146.945 60.3961 146.764 60.5319 146.537 60.6677C146.311 60.8035 146.085 60.8941 145.858 60.9846C145.632 61.0751 145.361 61.1204 145.089 61.1657C144.817 61.1657 144.546 61.2109 144.274 61.2109ZM139.928 60.9846H144.274C144.546 60.9846 144.817 60.9846 145.044 60.9393C145.27 60.8941 145.542 60.8488 145.768 60.7583C145.994 60.6677 146.221 60.5772 146.402 60.4414C146.583 60.3508 146.809 60.215 146.945 60.0792C147.126 59.9434 147.262 59.8076 147.398 59.6266C147.533 59.4455 147.624 59.2644 147.76 59.0833C147.85 58.9023 147.941 58.7212 147.986 58.4948C148.031 58.3138 148.077 58.0874 148.077 57.8611C148.077 57.6347 148.031 57.4537 147.986 57.2273C147.941 57.0463 147.85 56.8199 147.76 56.6388C147.669 56.4578 147.533 56.2767 147.398 56.0956C147.262 55.9146 147.126 55.7787 146.945 55.6429C146.764 55.5071 146.583 55.3713 146.402 55.2808C146.221 55.1903 145.994 55.0545 145.768 54.9639C145.542 54.8734 145.315 54.8281 145.044 54.7828C144.817 54.7376 144.546 54.7376 144.274 54.7376H139.928V60.9846ZM139.521 67.5032H139.702V61.3015H143.369L148.122 67.5032H148.303L143.595 61.3015H144.319C144.908 61.3015 145.451 61.2109 145.949 61.0299C146.221 60.9393 146.447 60.8488 146.673 60.713C146.9 60.5772 147.081 60.4414 147.307 60.3056C147.488 60.1698 147.669 59.9887 147.805 59.8076C147.941 59.6266 148.077 59.4455 148.167 59.2191C148.258 58.9928 148.348 58.8117 148.394 58.5854C148.439 58.359 148.484 58.1327 148.484 57.9064C148.484 57.68 148.439 57.4537 148.394 57.2273C148.348 57.001 148.258 56.7746 148.167 56.5936C148.077 56.3672 147.941 56.1862 147.805 56.0051C147.669 55.824 147.488 55.6429 147.307 55.5071C147.126 55.3713 146.9 55.1903 146.673 55.0997C146.447 54.9639 146.221 54.8734 145.949 54.7828C145.451 54.6018 144.908 54.5112 144.319 54.5112H139.566V67.5032H139.521ZM139.838 67.7296H139.34V54.2849H144.274C144.863 54.2849 145.451 54.3754 145.994 54.5565C146.266 54.647 146.492 54.7828 146.719 54.8734C146.945 55.0092 147.171 55.145 147.352 55.3261C147.533 55.5071 147.714 55.6882 147.896 55.8693C148.031 56.0504 148.167 56.2767 148.303 56.503C148.394 56.7294 148.484 56.9557 148.575 57.1821C148.62 57.4084 148.665 57.68 148.665 57.9064C148.665 58.178 148.62 58.4043 148.575 58.6307C148.529 58.857 148.439 59.0833 148.303 59.3097C148.212 59.536 148.077 59.7171 147.896 59.9434C147.76 60.1245 147.579 60.3056 147.352 60.4866C147.171 60.6677 146.945 60.8035 146.719 60.9393C146.492 61.0751 146.221 61.1657 145.994 61.2562C145.451 61.4373 144.908 61.5278 144.274 61.5278H144.002L148.756 67.7296H148.077L143.323 61.5278H139.928V67.7296H139.838ZM131.418 67.4127H123.134V60.6225H129.652V60.5319H123.134V54.6018H131.282V54.5112H122.953V67.5485H131.418V67.4127ZM123.36 67.1864H131.644V67.6843H122.772V54.2396H131.508V54.7376H123.36V60.2603H129.879V60.7583H123.36V67.1864ZM105.434 60.713L105.343 60.8035L113.401 67.5032H113.582L105.524 60.7583L113.492 54.4207H113.311L105.434 60.713ZM105.253 67.5032V54.466H105.072V67.5032H105.253ZM105.479 61.1657V67.7296H104.891V54.2849H105.479V60.4866L113.22 54.2849H114.125L105.887 60.8488L114.171 67.7748H113.356L105.479 61.1657ZM85.1537 63.9723L89.6805 54.7828L94.2526 64.1534H85.0632L85.1537 63.9723ZM89.6353 55.2355L85.38 63.927H93.8905L89.6353 55.2355ZM83.1619 67.5032H83.343L85.0179 64.2439H94.2979L95.9276 67.5032H96.1086L89.6353 54.4207L83.1619 67.5032ZM83.3882 67.7296H82.845C85.1084 63.1575 87.3718 58.5401 89.6353 53.968C91.8987 58.5401 94.1621 63.1575 96.4255 67.7296H95.7918L94.1621 64.4703H85.1084L83.4335 67.7296H83.3882ZM70.9395 67.3222C70.6679 67.3674 70.351 67.4127 70.0794 67.4127H65.6431C65.6431 65.0135 65.6431 62.6143 65.6431 60.215H70.1246C70.4415 60.215 70.7131 60.2603 70.9847 60.3056C71.2563 60.3508 71.528 60.4414 71.7996 60.5319C72.0712 60.6225 72.2975 60.713 72.5238 60.8488C72.7502 60.9846 72.9765 61.1204 73.1576 61.3015C73.3387 61.4826 73.5198 61.6636 73.7008 61.8447C73.8366 62.0258 73.9724 62.2521 74.1082 62.4785C74.1988 62.7048 74.2893 62.9311 74.3799 63.1575C74.4251 63.3838 74.4704 63.6554 74.4704 63.8818C74.4704 64.1081 74.4251 64.3797 74.3799 64.6061C74.3346 64.8324 74.244 65.0588 74.1082 65.2851C74.0177 65.5114 73.8819 65.6925 73.7008 65.9188C73.565 66.0999 73.384 66.281 73.1576 66.4621C72.9765 66.6431 72.7502 66.7789 72.5238 66.9147C72.2975 67.0506 72.0712 67.1411 71.7996 67.2316C71.4827 67.2316 71.2111 67.2769 70.9395 67.3222ZM70.0794 67.1864C70.351 67.1864 70.6679 67.1864 70.8942 67.1411C71.1658 67.0958 71.4374 67.0506 71.6638 66.96C71.9354 66.8695 72.1617 66.7789 72.3881 66.6431C72.6144 66.5073 72.7955 66.3715 72.9765 66.2357C73.1576 66.0999 73.3387 65.9188 73.4745 65.7378C73.6103 65.5567 73.7461 65.3756 73.8366 65.1493C73.9272 64.9229 74.0177 64.7419 74.063 64.5155C74.1082 64.2892 74.1535 64.0628 74.1535 63.8365C74.1535 63.6102 74.1082 63.3838 74.063 63.1575C74.0177 62.9311 73.9272 62.7501 73.8366 62.5237C73.7461 62.2974 73.6103 62.1163 73.4745 61.9352C73.3387 61.7542 73.1576 61.5731 72.9765 61.4373C72.7955 61.3015 72.5691 61.1204 72.3881 61.0299C72.1617 60.8941 71.9354 60.8035 71.6638 60.713C71.3921 60.6225 71.1658 60.5772 70.8942 60.5319C70.6226 60.4867 70.351 60.4866 70.0794 60.4866H65.7789V67.2769H70.0794V67.1864ZM73.1576 56.7747C73.2029 56.9557 73.2029 57.1368 73.2029 57.3179C73.2029 57.4989 73.2029 57.68 73.1576 57.8611C73.1123 58.0422 73.0671 58.2232 72.9765 58.4043C72.886 58.5854 72.7955 58.7212 72.6597 58.857C72.5239 58.9928 72.388 59.1286 72.2522 59.2644C72.1164 59.4002 71.9354 59.4907 71.7543 59.6266C71.5732 59.7171 71.3921 59.8076 71.1658 59.8982C70.7584 60.034 70.351 60.1245 69.853 60.1245H65.5525V54.5565H69.853C70.0794 54.5565 70.3057 54.5565 70.532 54.6018C70.7584 54.647 70.9395 54.6923 71.1658 54.7828C71.3469 54.8734 71.5732 54.9186 71.7543 55.0545C71.9354 55.145 72.1164 55.2808 72.2522 55.3713C72.388 55.5071 72.5239 55.6429 72.6597 55.7787C72.7955 55.9146 72.886 56.0956 72.9765 56.2767C73.0671 56.4125 73.1123 56.5936 73.1576 56.7747ZM73.0218 57.3179C73.0218 57.1368 73.0218 56.9557 72.9765 56.8199C72.9313 56.6388 72.886 56.503 72.7955 56.322C72.7049 56.1862 72.6144 56.0051 72.5238 55.8693C72.4333 55.7335 72.2975 55.5977 72.1617 55.5071C72.0259 55.3713 71.8448 55.2808 71.709 55.1903C71.528 55.0997 71.3469 55.0092 71.1658 54.9639C70.9847 54.9187 70.7584 54.8281 70.5773 54.8281C70.351 54.7828 70.1699 54.7828 69.9436 54.7828H65.7789V59.9434H69.8983C70.351 59.9434 70.7584 59.8982 71.1205 59.7624C71.3016 59.7171 71.4827 59.6266 71.6638 59.536C71.8448 59.4455 71.9806 59.3549 72.1164 59.2191C72.2522 59.0833 72.388 58.9928 72.4786 58.857C72.5691 58.7212 72.7049 58.5854 72.7502 58.4043C72.8407 58.2685 72.886 58.0874 72.9313 57.9064C73.0218 57.68 73.0218 57.4989 73.0218 57.3179ZM71.8901 60.4414C71.6638 60.3508 71.4374 60.3056 71.1658 60.2603L70.7584 60.1698L71.1658 60.034C71.4827 59.9434 71.7996 59.8076 72.0712 59.6266C72.3428 59.4455 72.5691 59.2644 72.7955 58.9928C73.0218 58.7665 73.1576 58.4948 73.2481 58.2232C73.3387 57.9516 73.384 57.6347 73.384 57.3631C73.384 57.1821 73.3839 56.9557 73.3387 56.7747C73.2934 56.5936 73.2481 56.4125 73.1576 56.2314C73.0671 56.0504 72.9765 55.9146 72.8407 55.7335C72.7049 55.5977 72.5691 55.4166 72.4333 55.3261C72.2975 55.1903 72.1164 55.0997 71.9354 54.9639C71.7543 54.8734 71.528 54.7828 71.3469 54.6923C70.9395 54.5565 70.4415 54.466 69.9436 54.466H65.462V67.5032H70.1246C70.4415 67.5032 70.7584 67.458 71.03 67.4127C71.3016 67.3674 71.6185 67.2769 71.8901 67.1864C72.1617 67.0958 72.4333 66.96 72.6597 66.8242C72.886 66.6884 73.1123 66.5526 73.3387 66.3715C73.5198 66.1905 73.7008 66.0094 73.8819 65.8283C74.0177 65.6472 74.1988 65.4209 74.2893 65.1946C74.4251 64.9682 74.4704 64.7419 74.5609 64.5155C74.6062 64.2892 74.6515 64.0176 74.6515 63.7912C74.6515 63.5649 74.6515 63.3838 74.6062 63.1575C74.5609 62.9764 74.5157 62.7501 74.4251 62.569C74.3346 62.3879 74.244 62.2068 74.1082 62.0258C73.9724 61.8447 73.8819 61.6636 73.7008 61.5278C73.565 61.3467 73.3839 61.2109 73.2029 61.0751C73.0218 60.9393 72.8407 60.8035 72.6144 60.713C72.3428 60.6225 72.1164 60.4867 71.8901 60.4414ZM71.5732 60.1245C71.709 60.1698 71.8448 60.215 71.9806 60.2603C72.207 60.3508 72.4333 60.4414 72.6597 60.5772C72.886 60.713 73.0671 60.8035 73.2481 60.9846C73.4292 61.1204 73.6103 61.3015 73.7461 61.4373C73.8819 61.6184 74.063 61.7994 74.1535 61.9805C74.2893 62.1616 74.3799 62.3879 74.4704 62.569C74.5609 62.7953 74.6062 62.9764 74.6515 63.2027C74.6967 63.4291 74.6967 63.6554 74.6967 63.8818C74.6967 64.1534 74.6515 64.425 74.6062 64.6513C74.5609 64.9229 74.4704 65.1493 74.3346 65.3756C74.1988 65.602 74.063 65.8283 73.8819 66.0547C73.7008 66.281 73.5198 66.4621 73.2934 66.6431C73.0671 66.8242 72.8407 66.96 72.6144 67.0958C72.3881 67.2316 72.1164 67.3674 71.7996 67.458C71.528 67.5485 71.2111 67.639 70.8942 67.6843C70.5773 67.7296 70.2604 67.7748 69.9436 67.7748H65.0999V54.3302H69.8078C70.3057 54.3302 70.8037 54.4207 71.2563 54.5565C71.4827 54.647 71.709 54.7376 71.8901 54.8281C72.0712 54.9186 72.2522 55.0545 72.4333 55.1903C72.6144 55.3261 72.7502 55.4619 72.886 55.6429C73.0218 55.824 73.1123 55.9598 73.2481 56.1862C73.3387 56.3672 73.4292 56.5483 73.4745 56.7747C73.5198 56.9557 73.565 57.1821 73.565 57.4084C73.565 57.7253 73.5198 58.0422 73.384 58.359C73.2934 58.6759 73.1123 58.9475 72.886 59.2191C72.6597 59.4907 72.4333 59.7171 72.1164 59.8982C71.9806 59.8982 71.7996 60.034 71.5732 60.1245Z"/>
</mask>
<path d="M167.406 54.466H167.225L162.291 61.6184L157.357 54.466H157.221L162.2 61.7542V67.5032H162.381V61.7542L167.406 54.466ZM167.18 54.2396H167.814L162.608 61.7994V67.6843H162.019V61.7994L156.813 54.2396H157.492L162.291 61.2562L167.089 54.2396H167.18ZM144.274 61.2109H139.702V54.5565H144.274C144.546 54.5565 144.817 54.5565 145.089 54.6018C145.361 54.647 145.587 54.6923 145.858 54.7828C146.085 54.8734 146.311 54.9639 146.537 55.0997C146.764 55.2355 146.945 55.3713 147.126 55.5071C147.307 55.6429 147.488 55.824 147.624 56.0051C147.76 56.1862 147.896 56.3672 147.986 56.5936C148.077 56.7746 148.167 57.001 148.212 57.2273C148.258 57.4537 148.303 57.68 148.303 57.9064C148.303 58.1327 148.258 58.359 148.212 58.5854C148.167 58.8117 148.077 58.9928 147.986 59.2191C147.896 59.4002 147.76 59.6266 147.624 59.7624C147.488 59.9434 147.307 60.0792 147.126 60.2603C146.945 60.3961 146.764 60.5319 146.537 60.6677C146.311 60.8035 146.085 60.8941 145.858 60.9846C145.632 61.0751 145.361 61.1204 145.089 61.1657C144.817 61.1657 144.546 61.2109 144.274 61.2109ZM139.928 60.9846H144.274C144.546 60.9846 144.817 60.9846 145.044 60.9393C145.27 60.8941 145.542 60.8488 145.768 60.7583C145.994 60.6677 146.221 60.5772 146.402 60.4414C146.583 60.3508 146.809 60.215 146.945 60.0792C147.126 59.9434 147.262 59.8076 147.398 59.6266C147.533 59.4455 147.624 59.2644 147.76 59.0833C147.85 58.9023 147.941 58.7212 147.986 58.4948C148.031 58.3138 148.077 58.0874 148.077 57.8611C148.077 57.6347 148.031 57.4537 147.986 57.2273C147.941 57.0463 147.85 56.8199 147.76 56.6388C147.669 56.4578 147.533 56.2767 147.398 56.0956C147.262 55.9146 147.126 55.7787 146.945 55.6429C146.764 55.5071 146.583 55.3713 146.402 55.2808C146.221 55.1903 145.994 55.0545 145.768 54.9639C145.542 54.8734 145.315 54.8281 145.044 54.7828C144.817 54.7376 144.546 54.7376 144.274 54.7376H139.928V60.9846ZM139.521 67.5032H139.702V61.3015H143.369L148.122 67.5032H148.303L143.595 61.3015H144.319C144.908 61.3015 145.451 61.2109 145.949 61.0299C146.221 60.9393 146.447 60.8488 146.673 60.713C146.9 60.5772 147.081 60.4414 147.307 60.3056C147.488 60.1698 147.669 59.9887 147.805 59.8076C147.941 59.6266 148.077 59.4455 148.167 59.2191C148.258 58.9928 148.348 58.8117 148.394 58.5854C148.439 58.359 148.484 58.1327 148.484 57.9064C148.484 57.68 148.439 57.4537 148.394 57.2273C148.348 57.001 148.258 56.7746 148.167 56.5936C148.077 56.3672 147.941 56.1862 147.805 56.0051C147.669 55.824 147.488 55.6429 147.307 55.5071C147.126 55.3713 146.9 55.1903 146.673 55.0997C146.447 54.9639 146.221 54.8734 145.949 54.7828C145.451 54.6018 144.908 54.5112 144.319 54.5112H139.566V67.5032H139.521ZM139.838 67.7296H139.34V54.2849H144.274C144.863 54.2849 145.451 54.3754 145.994 54.5565C146.266 54.647 146.492 54.7828 146.719 54.8734C146.945 55.0092 147.171 55.145 147.352 55.3261C147.533 55.5071 147.714 55.6882 147.896 55.8693C148.031 56.0504 148.167 56.2767 148.303 56.503C148.394 56.7294 148.484 56.9557 148.575 57.1821C148.62 57.4084 148.665 57.68 148.665 57.9064C148.665 58.178 148.62 58.4043 148.575 58.6307C148.529 58.857 148.439 59.0833 148.303 59.3097C148.212 59.536 148.077 59.7171 147.896 59.9434C147.76 60.1245 147.579 60.3056 147.352 60.4866C147.171 60.6677 146.945 60.8035 146.719 60.9393C146.492 61.0751 146.221 61.1657 145.994 61.2562C145.451 61.4373 144.908 61.5278 144.274 61.5278H144.002L148.756 67.7296H148.077L143.323 61.5278H139.928V67.7296H139.838ZM131.418 67.4127H123.134V60.6225H129.652V60.5319H123.134V54.6018H131.282V54.5112H122.953V67.5485H131.418V67.4127ZM123.36 67.1864H131.644V67.6843H122.772V54.2396H131.508V54.7376H123.36V60.2603H129.879V60.7583H123.36V67.1864ZM105.434 60.713L105.343 60.8035L113.401 67.5032H113.582L105.524 60.7583L113.492 54.4207H113.311L105.434 60.713ZM105.253 67.5032V54.466H105.072V67.5032H105.253ZM105.479 61.1657V67.7296H104.891V54.2849H105.479V60.4866L113.22 54.2849H114.125L105.887 60.8488L114.171 67.7748H113.356L105.479 61.1657ZM85.1537 63.9723L89.6805 54.7828L94.2526 64.1534H85.0632L85.1537 63.9723ZM89.6353 55.2355L85.38 63.927H93.8905L89.6353 55.2355ZM83.1619 67.5032H83.343L85.0179 64.2439H94.2979L95.9276 67.5032H96.1086L89.6353 54.4207L83.1619 67.5032ZM83.3882 67.7296H82.845C85.1084 63.1575 87.3718 58.5401 89.6353 53.968C91.8987 58.5401 94.1621 63.1575 96.4255 67.7296H95.7918L94.1621 64.4703H85.1084L83.4335 67.7296H83.3882ZM70.9395 67.3222C70.6679 67.3674 70.351 67.4127 70.0794 67.4127H65.6431C65.6431 65.0135 65.6431 62.6143 65.6431 60.215H70.1246C70.4415 60.215 70.7131 60.2603 70.9847 60.3056C71.2563 60.3508 71.528 60.4414 71.7996 60.5319C72.0712 60.6225 72.2975 60.713 72.5238 60.8488C72.7502 60.9846 72.9765 61.1204 73.1576 61.3015C73.3387 61.4826 73.5198 61.6636 73.7008 61.8447C73.8366 62.0258 73.9724 62.2521 74.1082 62.4785C74.1988 62.7048 74.2893 62.9311 74.3799 63.1575C74.4251 63.3838 74.4704 63.6554 74.4704 63.8818C74.4704 64.1081 74.4251 64.3797 74.3799 64.6061C74.3346 64.8324 74.244 65.0588 74.1082 65.2851C74.0177 65.5114 73.8819 65.6925 73.7008 65.9188C73.565 66.0999 73.384 66.281 73.1576 66.4621C72.9765 66.6431 72.7502 66.7789 72.5238 66.9147C72.2975 67.0506 72.0712 67.1411 71.7996 67.2316C71.4827 67.2316 71.2111 67.2769 70.9395 67.3222ZM70.0794 67.1864C70.351 67.1864 70.6679 67.1864 70.8942 67.1411C71.1658 67.0958 71.4374 67.0506 71.6638 66.96C71.9354 66.8695 72.1617 66.7789 72.3881 66.6431C72.6144 66.5073 72.7955 66.3715 72.9765 66.2357C73.1576 66.0999 73.3387 65.9188 73.4745 65.7378C73.6103 65.5567 73.7461 65.3756 73.8366 65.1493C73.9272 64.9229 74.0177 64.7419 74.063 64.5155C74.1082 64.2892 74.1535 64.0628 74.1535 63.8365C74.1535 63.6102 74.1082 63.3838 74.063 63.1575C74.0177 62.9311 73.9272 62.7501 73.8366 62.5237C73.7461 62.2974 73.6103 62.1163 73.4745 61.9352C73.3387 61.7542 73.1576 61.5731 72.9765 61.4373C72.7955 61.3015 72.5691 61.1204 72.3881 61.0299C72.1617 60.8941 71.9354 60.8035 71.6638 60.713C71.3921 60.6225 71.1658 60.5772 70.8942 60.5319C70.6226 60.4867 70.351 60.4866 70.0794 60.4866H65.7789V67.2769H70.0794V67.1864ZM73.1576 56.7747C73.2029 56.9557 73.2029 57.1368 73.2029 57.3179C73.2029 57.4989 73.2029 57.68 73.1576 57.8611C73.1123 58.0422 73.0671 58.2232 72.9765 58.4043C72.886 58.5854 72.7955 58.7212 72.6597 58.857C72.5239 58.9928 72.388 59.1286 72.2522 59.2644C72.1164 59.4002 71.9354 59.4907 71.7543 59.6266C71.5732 59.7171 71.3921 59.8076 71.1658 59.8982C70.7584 60.034 70.351 60.1245 69.853 60.1245H65.5525V54.5565H69.853C70.0794 54.5565 70.3057 54.5565 70.532 54.6018C70.7584 54.647 70.9395 54.6923 71.1658 54.7828C71.3469 54.8734 71.5732 54.9186 71.7543 55.0545C71.9354 55.145 72.1164 55.2808 72.2522 55.3713C72.388 55.5071 72.5239 55.6429 72.6597 55.7787C72.7955 55.9146 72.886 56.0956 72.9765 56.2767C73.0671 56.4125 73.1123 56.5936 73.1576 56.7747ZM73.0218 57.3179C73.0218 57.1368 73.0218 56.9557 72.9765 56.8199C72.9313 56.6388 72.886 56.503 72.7955 56.322C72.7049 56.1862 72.6144 56.0051 72.5238 55.8693C72.4333 55.7335 72.2975 55.5977 72.1617 55.5071C72.0259 55.3713 71.8448 55.2808 71.709 55.1903C71.528 55.0997 71.3469 55.0092 71.1658 54.9639C70.9847 54.9187 70.7584 54.8281 70.5773 54.8281C70.351 54.7828 70.1699 54.7828 69.9436 54.7828H65.7789V59.9434H69.8983C70.351 59.9434 70.7584 59.8982 71.1205 59.7624C71.3016 59.7171 71.4827 59.6266 71.6638 59.536C71.8448 59.4455 71.9806 59.3549 72.1164 59.2191C72.2522 59.0833 72.388 58.9928 72.4786 58.857C72.5691 58.7212 72.7049 58.5854 72.7502 58.4043C72.8407 58.2685 72.886 58.0874 72.9313 57.9064C73.0218 57.68 73.0218 57.4989 73.0218 57.3179ZM71.8901 60.4414C71.6638 60.3508 71.4374 60.3056 71.1658 60.2603L70.7584 60.1698L71.1658 60.034C71.4827 59.9434 71.7996 59.8076 72.0712 59.6266C72.3428 59.4455 72.5691 59.2644 72.7955 58.9928C73.0218 58.7665 73.1576 58.4948 73.2481 58.2232C73.3387 57.9516 73.384 57.6347 73.384 57.3631C73.384 57.1821 73.3839 56.9557 73.3387 56.7747C73.2934 56.5936 73.2481 56.4125 73.1576 56.2314C73.0671 56.0504 72.9765 55.9146 72.8407 55.7335C72.7049 55.5977 72.5691 55.4166 72.4333 55.3261C72.2975 55.1903 72.1164 55.0997 71.9354 54.9639C71.7543 54.8734 71.528 54.7828 71.3469 54.6923C70.9395 54.5565 70.4415 54.466 69.9436 54.466H65.462V67.5032H70.1246C70.4415 67.5032 70.7584 67.458 71.03 67.4127C71.3016 67.3674 71.6185 67.2769 71.8901 67.1864C72.1617 67.0958 72.4333 66.96 72.6597 66.8242C72.886 66.6884 73.1123 66.5526 73.3387 66.3715C73.5198 66.1905 73.7008 66.0094 73.8819 65.8283C74.0177 65.6472 74.1988 65.4209 74.2893 65.1946C74.4251 64.9682 74.4704 64.7419 74.5609 64.5155C74.6062 64.2892 74.6515 64.0176 74.6515 63.7912C74.6515 63.5649 74.6515 63.3838 74.6062 63.1575C74.5609 62.9764 74.5157 62.7501 74.4251 62.569C74.3346 62.3879 74.244 62.2068 74.1082 62.0258C73.9724 61.8447 73.8819 61.6636 73.7008 61.5278C73.565 61.3467 73.3839 61.2109 73.2029 61.0751C73.0218 60.9393 72.8407 60.8035 72.6144 60.713C72.3428 60.6225 72.1164 60.4867 71.8901 60.4414ZM71.5732 60.1245C71.709 60.1698 71.8448 60.215 71.9806 60.2603C72.207 60.3508 72.4333 60.4414 72.6597 60.5772C72.886 60.713 73.0671 60.8035 73.2481 60.9846C73.4292 61.1204 73.6103 61.3015 73.7461 61.4373C73.8819 61.6184 74.063 61.7994 74.1535 61.9805C74.2893 62.1616 74.3799 62.3879 74.4704 62.569C74.5609 62.7953 74.6062 62.9764 74.6515 63.2027C74.6967 63.4291 74.6967 63.6554 74.6967 63.8818C74.6967 64.1534 74.6515 64.425 74.6062 64.6513C74.5609 64.9229 74.4704 65.1493 74.3346 65.3756C74.1988 65.602 74.063 65.8283 73.8819 66.0547C73.7008 66.281 73.5198 66.4621 73.2934 66.6431C73.0671 66.8242 72.8407 66.96 72.6144 67.0958C72.3881 67.2316 72.1164 67.3674 71.7996 67.458C71.528 67.5485 71.2111 67.639 70.8942 67.6843C70.5773 67.7296 70.2604 67.7748 69.9436 67.7748H65.0999V54.3302H69.8078C70.3057 54.3302 70.8037 54.4207 71.2563 54.5565C71.4827 54.647 71.709 54.7376 71.8901 54.8281C72.0712 54.9186 72.2522 55.0545 72.4333 55.1903C72.6144 55.3261 72.7502 55.4619 72.886 55.6429C73.0218 55.824 73.1123 55.9598 73.2481 56.1862C73.3387 56.3672 73.4292 56.5483 73.4745 56.7747C73.5198 56.9557 73.565 57.1821 73.565 57.4084C73.565 57.7253 73.5198 58.0422 73.384 58.359C73.2934 58.6759 73.1123 58.9475 72.886 59.2191C72.6597 59.4907 72.4333 59.7171 72.1164 59.8982C71.9806 59.8982 71.7996 60.034 71.5732 60.1245Z" fill="white"/>
<path d="M167.406 54.466H167.225L162.291 61.6184L157.357 54.466H157.221L162.2 61.7542V67.5032H162.381V61.7542L167.406 54.466ZM167.18 54.2396H167.814L162.608 61.7994V67.6843H162.019V61.7994L156.813 54.2396H157.492L162.291 61.2562L167.089 54.2396H167.18ZM144.274 61.2109H139.702V54.5565H144.274C144.546 54.5565 144.817 54.5565 145.089 54.6018C145.361 54.647 145.587 54.6923 145.858 54.7828C146.085 54.8734 146.311 54.9639 146.537 55.0997C146.764 55.2355 146.945 55.3713 147.126 55.5071C147.307 55.6429 147.488 55.824 147.624 56.0051C147.76 56.1862 147.896 56.3672 147.986 56.5936C148.077 56.7746 148.167 57.001 148.212 57.2273C148.258 57.4537 148.303 57.68 148.303 57.9064C148.303 58.1327 148.258 58.359 148.212 58.5854C148.167 58.8117 148.077 58.9928 147.986 59.2191C147.896 59.4002 147.76 59.6266 147.624 59.7624C147.488 59.9434 147.307 60.0792 147.126 60.2603C146.945 60.3961 146.764 60.5319 146.537 60.6677C146.311 60.8035 146.085 60.8941 145.858 60.9846C145.632 61.0751 145.361 61.1204 145.089 61.1657C144.817 61.1657 144.546 61.2109 144.274 61.2109ZM139.928 60.9846H144.274C144.546 60.9846 144.817 60.9846 145.044 60.9393C145.27 60.8941 145.542 60.8488 145.768 60.7583C145.994 60.6677 146.221 60.5772 146.402 60.4414C146.583 60.3508 146.809 60.215 146.945 60.0792C147.126 59.9434 147.262 59.8076 147.398 59.6266C147.533 59.4455 147.624 59.2644 147.76 59.0833C147.85 58.9023 147.941 58.7212 147.986 58.4948C148.031 58.3138 148.077 58.0874 148.077 57.8611C148.077 57.6347 148.031 57.4537 147.986 57.2273C147.941 57.0463 147.85 56.8199 147.76 56.6388C147.669 56.4578 147.533 56.2767 147.398 56.0956C147.262 55.9146 147.126 55.7787 146.945 55.6429C146.764 55.5071 146.583 55.3713 146.402 55.2808C146.221 55.1903 145.994 55.0545 145.768 54.9639C145.542 54.8734 145.315 54.8281 145.044 54.7828C144.817 54.7376 144.546 54.7376 144.274 54.7376H139.928V60.9846ZM139.521 67.5032H139.702V61.3015H143.369L148.122 67.5032H148.303L143.595 61.3015H144.319C144.908 61.3015 145.451 61.2109 145.949 61.0299C146.221 60.9393 146.447 60.8488 146.673 60.713C146.9 60.5772 147.081 60.4414 147.307 60.3056C147.488 60.1698 147.669 59.9887 147.805 59.8076C147.941 59.6266 148.077 59.4455 148.167 59.2191C148.258 58.9928 148.348 58.8117 148.394 58.5854C148.439 58.359 148.484 58.1327 148.484 57.9064C148.484 57.68 148.439 57.4537 148.394 57.2273C148.348 57.001 148.258 56.7746 148.167 56.5936C148.077 56.3672 147.941 56.1862 147.805 56.0051C147.669 55.824 147.488 55.6429 147.307 55.5071C147.126 55.3713 146.9 55.1903 146.673 55.0997C146.447 54.9639 146.221 54.8734 145.949 54.7828C145.451 54.6018 144.908 54.5112 144.319 54.5112H139.566V67.5032H139.521ZM139.838 67.7296H139.34V54.2849H144.274C144.863 54.2849 145.451 54.3754 145.994 54.5565C146.266 54.647 146.492 54.7828 146.719 54.8734C146.945 55.0092 147.171 55.145 147.352 55.3261C147.533 55.5071 147.714 55.6882 147.896 55.8693C148.031 56.0504 148.167 56.2767 148.303 56.503C148.394 56.7294 148.484 56.9557 148.575 57.1821C148.62 57.4084 148.665 57.68 148.665 57.9064C148.665 58.178 148.62 58.4043 148.575 58.6307C148.529 58.857 148.439 59.0833 148.303 59.3097C148.212 59.536 148.077 59.7171 147.896 59.9434C147.76 60.1245 147.579 60.3056 147.352 60.4866C147.171 60.6677 146.945 60.8035 146.719 60.9393C146.492 61.0751 146.221 61.1657 145.994 61.2562C145.451 61.4373 144.908 61.5278 144.274 61.5278H144.002L148.756 67.7296H148.077L143.323 61.5278H139.928V67.7296H139.838ZM131.418 67.4127H123.134V60.6225H129.652V60.5319H123.134V54.6018H131.282V54.5112H122.953V67.5485H131.418V67.4127ZM123.36 67.1864H131.644V67.6843H122.772V54.2396H131.508V54.7376H123.36V60.2603H129.879V60.7583H123.36V67.1864ZM105.434 60.713L105.343 60.8035L113.401 67.5032H113.582L105.524 60.7583L113.492 54.4207H113.311L105.434 60.713ZM105.253 67.5032V54.466H105.072V67.5032H105.253ZM105.479 61.1657V67.7296H104.891V54.2849H105.479V60.4866L113.22 54.2849H114.125L105.887 60.8488L114.171 67.7748H113.356L105.479 61.1657ZM85.1537 63.9723L89.6805 54.7828L94.2526 64.1534H85.0632L85.1537 63.9723ZM89.6353 55.2355L85.38 63.927H93.8905L89.6353 55.2355ZM83.1619 67.5032H83.343L85.0179 64.2439H94.2979L95.9276 67.5032H96.1086L89.6353 54.4207L83.1619 67.5032ZM83.3882 67.7296H82.845C85.1084 63.1575 87.3718 58.5401 89.6353 53.968C91.8987 58.5401 94.1621 63.1575 96.4255 67.7296H95.7918L94.1621 64.4703H85.1084L83.4335 67.7296H83.3882ZM70.9395 67.3222C70.6679 67.3674 70.351 67.4127 70.0794 67.4127H65.6431C65.6431 65.0135 65.6431 62.6143 65.6431 60.215H70.1246C70.4415 60.215 70.7131 60.2603 70.9847 60.3056C71.2563 60.3508 71.528 60.4414 71.7996 60.5319C72.0712 60.6225 72.2975 60.713 72.5238 60.8488C72.7502 60.9846 72.9765 61.1204 73.1576 61.3015C73.3387 61.4826 73.5198 61.6636 73.7008 61.8447C73.8366 62.0258 73.9724 62.2521 74.1082 62.4785C74.1988 62.7048 74.2893 62.9311 74.3799 63.1575C74.4251 63.3838 74.4704 63.6554 74.4704 63.8818C74.4704 64.1081 74.4251 64.3797 74.3799 64.6061C74.3346 64.8324 74.244 65.0588 74.1082 65.2851C74.0177 65.5114 73.8819 65.6925 73.7008 65.9188C73.565 66.0999 73.384 66.281 73.1576 66.4621C72.9765 66.6431 72.7502 66.7789 72.5238 66.9147C72.2975 67.0506 72.0712 67.1411 71.7996 67.2316C71.4827 67.2316 71.2111 67.2769 70.9395 67.3222ZM70.0794 67.1864C70.351 67.1864 70.6679 67.1864 70.8942 67.1411C71.1658 67.0958 71.4374 67.0506 71.6638 66.96C71.9354 66.8695 72.1617 66.7789 72.3881 66.6431C72.6144 66.5073 72.7955 66.3715 72.9765 66.2357C73.1576 66.0999 73.3387 65.9188 73.4745 65.7378C73.6103 65.5567 73.7461 65.3756 73.8366 65.1493C73.9272 64.9229 74.0177 64.7419 74.063 64.5155C74.1082 64.2892 74.1535 64.0628 74.1535 63.8365C74.1535 63.6102 74.1082 63.3838 74.063 63.1575C74.0177 62.9311 73.9272 62.7501 73.8366 62.5237C73.7461 62.2974 73.6103 62.1163 73.4745 61.9352C73.3387 61.7542 73.1576 61.5731 72.9765 61.4373C72.7955 61.3015 72.5691 61.1204 72.3881 61.0299C72.1617 60.8941 71.9354 60.8035 71.6638 60.713C71.3921 60.6225 71.1658 60.5772 70.8942 60.5319C70.6226 60.4867 70.351 60.4866 70.0794 60.4866H65.7789V67.2769H70.0794V67.1864ZM73.1576 56.7747C73.2029 56.9557 73.2029 57.1368 73.2029 57.3179C73.2029 57.4989 73.2029 57.68 73.1576 57.8611C73.1123 58.0422 73.0671 58.2232 72.9765 58.4043C72.886 58.5854 72.7955 58.7212 72.6597 58.857C72.5239 58.9928 72.388 59.1286 72.2522 59.2644C72.1164 59.4002 71.9354 59.4907 71.7543 59.6266C71.5732 59.7171 71.3921 59.8076 71.1658 59.8982C70.7584 60.034 70.351 60.1245 69.853 60.1245H65.5525V54.5565H69.853C70.0794 54.5565 70.3057 54.5565 70.532 54.6018C70.7584 54.647 70.9395 54.6923 71.1658 54.7828C71.3469 54.8734 71.5732 54.9186 71.7543 55.0545C71.9354 55.145 72.1164 55.2808 72.2522 55.3713C72.388 55.5071 72.5239 55.6429 72.6597 55.7787C72.7955 55.9146 72.886 56.0956 72.9765 56.2767C73.0671 56.4125 73.1123 56.5936 73.1576 56.7747ZM73.0218 57.3179C73.0218 57.1368 73.0218 56.9557 72.9765 56.8199C72.9313 56.6388 72.886 56.503 72.7955 56.322C72.7049 56.1862 72.6144 56.0051 72.5238 55.8693C72.4333 55.7335 72.2975 55.5977 72.1617 55.5071C72.0259 55.3713 71.8448 55.2808 71.709 55.1903C71.528 55.0997 71.3469 55.0092 71.1658 54.9639C70.9847 54.9187 70.7584 54.8281 70.5773 54.8281C70.351 54.7828 70.1699 54.7828 69.9436 54.7828H65.7789V59.9434H69.8983C70.351 59.9434 70.7584 59.8982 71.1205 59.7624C71.3016 59.7171 71.4827 59.6266 71.6638 59.536C71.8448 59.4455 71.9806 59.3549 72.1164 59.2191C72.2522 59.0833 72.388 58.9928 72.4786 58.857C72.5691 58.7212 72.7049 58.5854 72.7502 58.4043C72.8407 58.2685 72.886 58.0874 72.9313 57.9064C73.0218 57.68 73.0218 57.4989 73.0218 57.3179ZM71.8901 60.4414C71.6638 60.3508 71.4374 60.3056 71.1658 60.2603L70.7584 60.1698L71.1658 60.034C71.4827 59.9434 71.7996 59.8076 72.0712 59.6266C72.3428 59.4455 72.5691 59.2644 72.7955 58.9928C73.0218 58.7665 73.1576 58.4948 73.2481 58.2232C73.3387 57.9516 73.384 57.6347 73.384 57.3631C73.384 57.1821 73.3839 56.9557 73.3387 56.7747C73.2934 56.5936 73.2481 56.4125 73.1576 56.2314C73.0671 56.0504 72.9765 55.9146 72.8407 55.7335C72.7049 55.5977 72.5691 55.4166 72.4333 55.3261C72.2975 55.1903 72.1164 55.0997 71.9354 54.9639C71.7543 54.8734 71.528 54.7828 71.3469 54.6923C70.9395 54.5565 70.4415 54.466 69.9436 54.466H65.462V67.5032H70.1246C70.4415 67.5032 70.7584 67.458 71.03 67.4127C71.3016 67.3674 71.6185 67.2769 71.8901 67.1864C72.1617 67.0958 72.4333 66.96 72.6597 66.8242C72.886 66.6884 73.1123 66.5526 73.3387 66.3715C73.5198 66.1905 73.7008 66.0094 73.8819 65.8283C74.0177 65.6472 74.1988 65.4209 74.2893 65.1946C74.4251 64.9682 74.4704 64.7419 74.5609 64.5155C74.6062 64.2892 74.6515 64.0176 74.6515 63.7912C74.6515 63.5649 74.6515 63.3838 74.6062 63.1575C74.5609 62.9764 74.5157 62.7501 74.4251 62.569C74.3346 62.3879 74.244 62.2068 74.1082 62.0258C73.9724 61.8447 73.8819 61.6636 73.7008 61.5278C73.565 61.3467 73.3839 61.2109 73.2029 61.0751C73.0218 60.9393 72.8407 60.8035 72.6144 60.713C72.3428 60.6225 72.1164 60.4867 71.8901 60.4414ZM71.5732 60.1245C71.709 60.1698 71.8448 60.215 71.9806 60.2603C72.207 60.3508 72.4333 60.4414 72.6597 60.5772C72.886 60.713 73.0671 60.8035 73.2481 60.9846C73.4292 61.1204 73.6103 61.3015 73.7461 61.4373C73.8819 61.6184 74.063 61.7994 74.1535 61.9805C74.2893 62.1616 74.3799 62.3879 74.4704 62.569C74.5609 62.7953 74.6062 62.9764 74.6515 63.2027C74.6967 63.4291 74.6967 63.6554 74.6967 63.8818C74.6967 64.1534 74.6515 64.425 74.6062 64.6513C74.5609 64.9229 74.4704 65.1493 74.3346 65.3756C74.1988 65.602 74.063 65.8283 73.8819 66.0547C73.7008 66.281 73.5198 66.4621 73.2934 66.6431C73.0671 66.8242 72.8407 66.96 72.6144 67.0958C72.3881 67.2316 72.1164 67.3674 71.7996 67.458C71.528 67.5485 71.2111 67.639 70.8942 67.6843C70.5773 67.7296 70.2604 67.7748 69.9436 67.7748H65.0999V54.3302H69.8078C70.3057 54.3302 70.8037 54.4207 71.2563 54.5565C71.4827 54.647 71.709 54.7376 71.8901 54.8281C72.0712 54.9186 72.2522 55.0545 72.4333 55.1903C72.6144 55.3261 72.7502 55.4619 72.886 55.6429C73.0218 55.824 73.1123 55.9598 73.2481 56.1862C73.3387 56.3672 73.4292 56.5483 73.4745 56.7747C73.5198 56.9557 73.565 57.1821 73.565 57.4084C73.565 57.7253 73.5198 58.0422 73.384 58.359C73.2934 58.6759 73.1123 58.9475 72.886 59.2191C72.6597 59.4907 72.4333 59.7171 72.1164 59.8982C71.9806 59.8982 71.7996 60.034 71.5732 60.1245Z" stroke="white" mask="url(#path-15-outside-2)"/>
</svg>
